<?xml version="1.0" encoding="UTF-8" standalone="no"?>
<svg
   xmlns:dc="http://purl.org/dc/elements/1.1/"
   xmlns:cc="http://creativecommons.org/ns#"
   xmlns:rdf="http://www.w3.org/1999/02/22-rdf-syntax-ns#"
   xmlns:svg="http://www.w3.org/2000/svg"
   xmlns="http://www.w3.org/2000/svg"
   xmlns:sodipodi="http://sodipodi.sourceforge.net/DTD/sodipodi-0.dtd"
   xmlns:inkscape="http://www.inkscape.org/namespaces/inkscape"
   version="1.1"
   viewBox="0 0 500.90641 509.3185"
   stroke-miterlimit="10"
   id="svg2"
   inkscape:version="0.48.4 r9939"
   width="100%"
   height="100%"
   sodipodi:docname="ceph_benchmarks_bottom_to_top.svg"
   style="fill:none;stroke:none">
  <metadata
     id="metadata225">
    <rdf:RDF>
      <cc:Work
         rdf:about="">
        <dc:format>image/svg+xml</dc:format>
        <dc:type
           rdf:resource="http://purl.org/dc/dcmitype/StillImage" />
      </cc:Work>
    </rdf:RDF>
  </metadata>
  <defs
     id="defs223" />
  <sodipodi:namedview
     pagecolor="#ffffff"
     bordercolor="#666666"
     borderopacity="1"
     objecttolerance="10"
     gridtolerance="10"
     guidetolerance="10"
     inkscape:pageopacity="0"
     inkscape:pageshadow="2"
     inkscape:window-width="1239"
     inkscape:window-height="1000"
     id="namedview221"
     showgrid="false"
     fit-margin-top="0"
     fit-margin-left="0"
     fit-margin-right="0"
     fit-margin-bottom="0"
     inkscape:zoom="0.32777778"
     inkscape:cx="353.00016"
     inkscape:cy="214.03125"
     inkscape:window-x="41"
     inkscape:window-y="24"
     inkscape:window-maximized="1"
     inkscape:current-layer="svg2" />
  <clipPath
     id="p.0">
    <path
       d="M 0,0 960,0 960,720 0,720 0,0 z"
       clip-rule="nonzero"
       id="path5"
       inkscape:connector-curvature="0" />
  </clipPath>
  <path
     style="fill:#000000;fill-opacity:0;fill-rule:nonzero"
     inkscape:connector-curvature="0"
     id="path9"
     d="m -126.99984,-64.712751 960,0 0,720.000001 -960,0 z" />
  <path
     style="fill:#999999;fill-rule:nonzero"
     inkscape:connector-curvature="0"
     id="path11"
     d="m 1.0001553,477.77805 71.9999997,0 0,30.55121 -71.9999997,0 z" />
  <path
     style="stroke:#000000;stroke-width:2;stroke-linecap:butt;stroke-linejoin:round"
     inkscape:connector-curvature="0"
     id="path13"
     d="m 1.0001553,477.77805 71.9999997,0 0,30.55121 -71.9999997,0 z" />
  <path
     style="fill:#000000;fill-rule:nonzero"
     inkscape:connector-curvature="0"
     id="path15"
     d="m 17.475865,496.79365 0,-7.875 5.3125,0 0,0.9375 -4.28125,0 0,2.4375 3.70312,0 0,0.92187 -3.70312,0 0,3.57813 -1.03125,0 z m 6.33737,-6.76563 0,-1.10937 0.96875,0 0,1.10937 -0.96875,0 z m 0,6.76563 0,-5.70313 0.96875,0 0,5.70313 -0.96875,0 z m 2.33624,0 0,-7.875 0.96875,0 0,7.875 -0.96875,0 z m 6.28934,-1.84375 1,0.125 q -0.23437,0.875 -0.875,1.35937 -0.64062,0.48438 -1.625,0.48438 -1.25,0 -1.98437,-0.76563 -0.73438,-0.76562 -0.73438,-2.15625 0,-1.45312 0.73438,-2.23437 0.75,-0.79688 1.92187,-0.79688 1.15625,0 1.875,0.78125 0.71875,0.76563 0.71875,2.1875 0,0.0781 0,0.25 l -4.25,0 q 0.0469,0.9375 0.51563,1.4375 0.48437,0.5 1.20312,0.5 0.53125,0 0.90625,-0.26562 0.375,-0.28125 0.59375,-0.90625 z m -3.17187,-1.5625 3.1875,0 q -0.0625,-0.71875 -0.35938,-1.07813 -0.46875,-0.54687 -1.20312,-0.54687 -0.67188,0 -1.125,0.45312 -0.45313,0.4375 -0.5,1.17188 z m 4.81714,1.70312 0.95312,-0.15625 q 0.0781,0.57813 0.4375,0.89063 0.375,0.29687 1.03125,0.29687 0.67188,0 0.98438,-0.26562 0.32812,-0.26563 0.32812,-0.64063 0,-0.32812 -0.28125,-0.51562 -0.20312,-0.125 -0.98437,-0.32813 -1.0625,-0.26562 -1.48438,-0.45312 -0.40625,-0.20313 -0.625,-0.54688 -0.20312,-0.34375 -0.20312,-0.76562 0,-0.39063 0.17187,-0.70313 0.17188,-0.32812 0.48438,-0.54687 0.21875,-0.17188 0.60937,-0.28125 0.39063,-0.10938 0.82813,-0.10938 0.67187,0 1.17187,0.1875 0.51563,0.1875 0.75,0.53125 0.25,0.32813 0.34375,0.875 l -0.9375,0.125 q -0.0781,-0.4375 -0.39062,-0.67187 -0.29688,-0.25 -0.85938,-0.25 -0.67187,0 -0.95312,0.21875 -0.28125,0.21875 -0.28125,0.51562 0,0.1875 0.10937,0.32813 0.125,0.15625 0.375,0.26562 0.14063,0.0469 0.85938,0.25 1.01562,0.26563 1.42187,0.4375 0.40625,0.17188 0.64063,0.51563 0.23437,0.32812 0.23437,0.82812 0,0.48438 -0.28125,0.90625 -0.28125,0.42188 -0.8125,0.65625 -0.53125,0.23438 -1.20312,0.23438 -1.10938,0 -1.70313,-0.45313 -0.57812,-0.46875 -0.73437,-1.375 z m 7.82812,0.84375 0.125,0.84375 q -0.40625,0.0937 -0.71875,0.0937 -0.53125,0 -0.82812,-0.17187 -0.28125,-0.17188 -0.40625,-0.4375 -0.10938,-0.26563 -0.10938,-1.14063 l 0,-3.28125 -0.71875,0 0,-0.75 0.71875,0 0,-1.40625 0.95313,-0.59375 0,2 0.98437,0 0,0.75 -0.98437,0 0,3.34375 q 0,0.40625 0.0469,0.53125 0.0625,0.10938 0.17188,0.1875 0.125,0.0625 0.32812,0.0625 0.17188,0 0.4375,-0.0312 z m 0.47626,-2 q 0,-1.57812 0.89062,-2.34375 0.73438,-0.625 1.79688,-0.625 1.17187,0 1.90625,0.76563 0.75,0.76562 0.75,2.125 0,1.10937 -0.32813,1.75 -0.32812,0.625 -0.96875,0.96875 -0.625,0.34375 -1.35937,0.34375 -1.20313,0 -1.95313,-0.76563 -0.73437,-0.76562 -0.73437,-2.21875 z m 1,0 q 0,1.10938 0.46875,1.65625 0.48437,0.53125 1.21875,0.53125 0.71875,0 1.1875,-0.54687 0.48437,-0.54688 0.48437,-1.67188 0,-1.04687 -0.48437,-1.59375 -0.48438,-0.54687 -1.1875,-0.54687 -0.73438,0 -1.21875,0.54687 -0.46875,0.53125 -0.46875,1.625 z m 5.28589,2.85938 0,-5.70313 0.85937,0 0,0.85938 q 0.34375,-0.60938 0.625,-0.79688 0.28125,-0.1875 0.60938,-0.1875 0.5,0 1,0.3125 l -0.32813,0.89063 q -0.35937,-0.20313 -0.71875,-0.20313 -0.3125,0 -0.5625,0.1875 -0.25,0.1875 -0.35937,0.53125 -0.15625,0.51563 -0.15625,1.125 l 0,2.98438 -0.96875,0 z m 7.45486,-1.84375 1,0.125 q -0.23437,0.875 -0.875,1.35937 -0.64062,0.48438 -1.625,0.48438 -1.25,0 -1.98437,-0.76563 -0.73438,-0.76562 -0.73438,-2.15625 0,-1.45312 0.73438,-2.23437 0.75,-0.79688 1.92187,-0.79688 1.15625,0 1.875,0.78125 0.71875,0.76563 0.71875,2.1875 0,0.0781 0,0.25 l -4.25,0 q 0.0469,0.9375 0.51563,1.4375 0.48437,0.5 1.20312,0.5 0.53125,0 0.90625,-0.26562 0.375,-0.28125 0.59375,-0.90625 z m -3.17187,-1.5625 3.1875,0 q -0.0625,-0.71875 -0.35938,-1.07813 -0.46875,-0.54687 -1.20312,-0.54687 -0.67188,0 -1.125,0.45312 -0.45313,0.4375 -0.5,1.17188 z" />
  <path
     style="fill:#ffff00;fill-rule:nonzero"
     inkscape:connector-curvature="0"
     id="path17"
     d="m 224.44898,376.72032 72,0 0,30.55118 -72,0 z" />
  <path
     style="stroke:#000000;stroke-width:2;stroke-linecap:butt;stroke-linejoin:round"
     inkscape:connector-curvature="0"
     id="path19"
     d="m 224.44898,376.72032 72,0 0,30.55118 -72,0 z" />
  <path
     style="fill:#000000;fill-rule:nonzero"
     inkscape:connector-curvature="0"
     id="path21"
     d="m 241.75193,395.73592 0,-7.875 1.0625,0 4.14063,6.1875 0,-6.1875 1,0 0,7.875 -1.07813,0 -4.125,-6.1875 0,6.1875 -1,0 z m 11.47687,-1.84375 1,0.125 q -0.23438,0.875 -0.875,1.35937 -0.64063,0.48438 -1.625,0.48438 -1.25,0 -1.98438,-0.76563 -0.73437,-0.76562 -0.73437,-2.15625 0,-1.45312 0.73437,-2.23437 0.75,-0.79688 1.92188,-0.79688 1.15625,0 1.875,0.78125 0.71875,0.76563 0.71875,2.1875 0,0.0781 0,0.25 l -4.25,0 q 0.0469,0.9375 0.51562,1.4375 0.48438,0.5 1.20313,0.5 0.53125,0 0.90625,-0.26562 0.375,-0.28125 0.59375,-0.90625 z m -3.17188,-1.5625 3.1875,0 q -0.0625,-0.71875 -0.35937,-1.07813 -0.46875,-0.54687 -1.20313,-0.54687 -0.67187,0 -1.125,0.45312 -0.45312,0.4375 -0.5,1.17188 z m 7.31711,2.54687 0.125,0.84375 q -0.40625,0.0937 -0.71875,0.0937 -0.53125,0 -0.82812,-0.17187 -0.28125,-0.17188 -0.40625,-0.4375 -0.10938,-0.26563 -0.10938,-1.14063 l 0,-3.28125 -0.71875,0 0,-0.75 0.71875,0 0,-1.40625 0.95313,-0.59375 0,2 0.98437,0 0,0.75 -0.98437,0 0,3.34375 q 0,0.40625 0.0469,0.53125 0.0625,0.10938 0.17188,0.1875 0.125,0.0625 0.32812,0.0625 0.17188,0 0.4375,-0.0312 z m 1.89816,0.85938 -1.75,-5.70313 1,0 0.90625,3.29688 0.34375,1.21875 q 0.0156,-0.0937 0.29688,-1.17188 l 0.90625,-3.34375 0.98437,0 0.85938,3.3125 0.28125,1.07813 0.32812,-1.09375 0.98438,-3.29688 0.9375,0 -1.78125,5.70313 -1,0 -0.92188,-3.42188 -0.21875,-0.96875 -1.15625,4.39063 -1,0 z m 6.27372,-2.85938 q 0,-1.57812 0.89062,-2.34375 0.73438,-0.625 1.79688,-0.625 1.17187,0 1.90625,0.76563 0.75,0.76562 0.75,2.125 0,1.10937 -0.32813,1.75 -0.32812,0.625 -0.96875,0.96875 -0.625,0.34375 -1.35937,0.34375 -1.20313,0 -1.95313,-0.76563 -0.73437,-0.76562 -0.73437,-2.21875 z m 1,0 q 0,1.10938 0.46875,1.65625 0.48437,0.53125 1.21875,0.53125 0.71875,0 1.1875,-0.54687 0.48437,-0.54688 0.48437,-1.67188 0,-1.04687 -0.48437,-1.59375 -0.48438,-0.54687 -1.1875,-0.54687 -0.73438,0 -1.21875,0.54687 -0.46875,0.53125 -0.46875,1.625 z m 5.28588,2.85938 0,-5.70313 0.85938,0 0,0.85938 q 0.34375,-0.60938 0.625,-0.79688 0.28125,-0.1875 0.60937,-0.1875 0.5,0 1,0.3125 l -0.32812,0.89063 q -0.35938,-0.20313 -0.71875,-0.20313 -0.3125,0 -0.5625,0.1875 -0.25,0.1875 -0.35938,0.53125 -0.15625,0.51563 -0.15625,1.125 l 0,2.98438 -0.96875,0 z m 3.56424,0 0,-7.875 0.96875,0 0,4.48437 2.28125,-2.3125 1.25,0 -2.17187,2.10938 2.39062,3.59375 -1.1875,0 -1.89062,-2.92188 -0.67188,0.65625 0,2.26563 -0.96875,0 z" />
  <path
     style="fill:#00ff00;fill-rule:nonzero"
     inkscape:connector-curvature="0"
     id="path23"
     d="m 57.000155,376.71508 72.000005,0 0,30.55118 -72.000005,0 z" />
  <path
     style="stroke:#000000;stroke-width:2;stroke-linecap:butt;stroke-linejoin:round"
     inkscape:connector-curvature="0"
     id="path25"
     d="m 57.000155,376.71508 72.000005,0 0,30.55118 -72.000005,0 z" />
  <path
     style="fill:#000000;fill-rule:nonzero"
     inkscape:connector-curvature="0"
     id="path27"
     d="m 81.985395,391.90255 q 0,-1.96875 1.04687,-3.07813 1.0625,-1.10937 2.71875,-1.10937 1.09375,0 1.96875,0.53125 0.875,0.51562 1.32813,1.45312 0.46875,0.92188 0.46875,2.10938 0,1.1875 -0.48438,2.14062 -0.48437,0.9375 -1.375,1.4375 -0.875,0.48438 -1.90625,0.48438 -1.10937,0 -1.98437,-0.53125 -0.875,-0.54688 -1.32813,-1.46875 -0.45312,-0.9375 -0.45312,-1.96875 z m 1.07812,0.0156 q 0,1.42188 0.76563,2.25 0.76562,0.8125 1.92187,0.8125 1.17188,0 1.92188,-0.82812 0.76562,-0.82813 0.76562,-2.35938 0,-0.95312 -0.32812,-1.67187 -0.3125,-0.71875 -0.9375,-1.10938 -0.625,-0.39062 -1.40625,-0.39062 -1.10938,0 -1.90625,0.76562 -0.79688,0.75 -0.79688,2.53125 z m 7.1794,1.28125 0.98438,-0.0781 q 0.0625,0.57812 0.3125,0.96875 0.26562,0.375 0.79687,0.60937 0.53125,0.23438 1.20313,0.23438 0.60937,0 1.0625,-0.17188 0.45312,-0.1875 0.67187,-0.48437 0.23438,-0.3125 0.23438,-0.6875 0,-0.375 -0.21875,-0.64063 -0.21875,-0.28125 -0.71875,-0.46875 -0.3125,-0.125 -1.40625,-0.375 -1.07813,-0.26562 -1.51563,-0.5 -0.5625,-0.29687 -0.84375,-0.73437 -0.26562,-0.4375 -0.26562,-0.98438 0,-0.59375 0.32812,-1.10937 0.34375,-0.51563 0.98438,-0.78125 0.65625,-0.28125 1.45312,-0.28125 0.875,0 1.54688,0.29687 0.67187,0.28125 1.03125,0.82813 0.35937,0.54687 0.39062,1.23437 l -1,0.0781 q -0.0781,-0.75 -0.54687,-1.125 -0.46875,-0.39063 -1.375,-0.39063 -0.9375,0 -1.375,0.35938 -0.4375,0.34375 -0.4375,0.82812 0,0.42188 0.3125,0.70313 0.29687,0.26562 1.5625,0.5625 1.28125,0.28125 1.75,0.5 0.6875,0.3125 1.01562,0.79687 0.32813,0.48438 0.32813,1.125 0,0.625 -0.35938,1.1875 -0.35937,0.54688 -1.04687,0.85938 -0.67188,0.3125 -1.51563,0.3125 -1.0625,0 -1.78125,-0.3125 -0.71875,-0.3125 -1.14062,-0.9375 -0.40625,-0.625 -0.42188,-1.42188 z m 7.45139,2.53125 0,-7.875 2.718755,0 q 0.92187,0 1.40625,0.10938 0.67187,0.15625 1.15625,0.5625 0.60937,0.53125 0.92187,1.35937 0.3125,0.8125 0.3125,1.85938 0,0.90625 -0.21875,1.59375 -0.20312,0.6875 -0.53125,1.14062 -0.32812,0.45313 -0.71875,0.71875 -0.39062,0.26563 -0.9375,0.40625 -0.54687,0.125 -1.26562,0.125 l -2.843755,0 z m 1.04687,-0.92187 1.687505,0 q 0.76563,0 1.20313,-0.14063 0.45312,-0.15625 0.71875,-0.42187 0.375,-0.375 0.57812,-1 0.20313,-0.625 0.20313,-1.51563 0,-1.23437 -0.40625,-1.89062 -0.40625,-0.67188 -0.98438,-0.89063 -0.42187,-0.15625 -1.34375,-0.15625 l -1.656255,0 0,6.01563 z" />
  <path
     style="fill:#999999;fill-rule:nonzero"
     inkscape:connector-curvature="0"
     id="path29"
     d="m 89.000155,477.77805 72.000005,0 0,30.55121 -72.000005,0 z" />
  <path
     style="stroke:#000000;stroke-width:2;stroke-linecap:butt;stroke-linejoin:round"
     inkscape:connector-curvature="0"
     id="path31"
     d="m 89.000155,477.77805 72.000005,0 0,30.55121 -72.000005,0 z" />
  <path
     style="fill:#000000;fill-rule:nonzero"
     inkscape:connector-curvature="0"
     id="path33"
     d="m 107.83756,494.55928 0.9375,-0.125 q 0.0469,0.89062 0.34375,1.23437 0.29687,0.32813 0.82812,0.32813 0.39063,0 0.67188,-0.17188 0.29687,-0.1875 0.40625,-0.48437 0.10937,-0.3125 0.10937,-1 l 0,-5.42188 1.03125,0 0,5.35938 q 0,1 -0.23437,1.54687 -0.23438,0.53125 -0.76563,0.82813 -0.51562,0.28125 -1.20312,0.28125 -1.04688,0 -1.59375,-0.59375 -0.54688,-0.60938 -0.53125,-1.78125 z m 5.375,-0.625 q 0,-1.57813 0.89062,-2.34375 0.73438,-0.625 1.79688,-0.625 1.17187,0 1.90625,0.76562 0.75,0.76563 0.75,2.125 0,1.10938 -0.32813,1.75 -0.32812,0.625 -0.96875,0.96875 -0.625,0.34375 -1.35937,0.34375 -1.20313,0 -1.95313,-0.76562 -0.73437,-0.76563 -0.73437,-2.21875 z m 1,0 q 0,1.10937 0.46875,1.65625 0.48437,0.53125 1.21875,0.53125 0.71875,0 1.1875,-0.54688 0.48437,-0.54687 0.48437,-1.67187 0,-1.04688 -0.48437,-1.59375 -0.48438,-0.54688 -1.1875,-0.54688 -0.73438,0 -1.21875,0.54688 -0.46875,0.53125 -0.46875,1.625 z m 9.03586,2.85937 0,-0.84375 q -0.67188,0.96875 -1.8125,0.96875 -0.5,0 -0.95313,-0.1875 -0.4375,-0.20312 -0.65625,-0.48437 -0.20312,-0.29688 -0.28125,-0.71875 -0.0625,-0.28125 -0.0625,-0.90625 l 0,-3.53125 0.96875,0 0,3.15625 q 0,0.76562 0.0625,1.03125 0.0937,0.375 0.375,0.59375 0.29688,0.21875 0.73438,0.21875 0.4375,0 0.8125,-0.21875 0.39062,-0.23438 0.54687,-0.60938 0.15625,-0.39062 0.15625,-1.10937 l 0,-3.0625 0.96875,0 0,5.70312 -0.85937,0 z m 2.17651,0 0,-5.70312 0.85938,0 0,0.85937 q 0.34375,-0.60937 0.625,-0.79687 0.28125,-0.1875 0.60937,-0.1875 0.5,0 1,0.3125 l -0.32812,0.89062 q -0.35938,-0.20312 -0.71875,-0.20312 -0.3125,0 -0.5625,0.1875 -0.25,0.1875 -0.35938,0.53125 -0.15625,0.51562 -0.15625,1.125 l 0,2.98437 -0.96875,0 z m 3.54862,0 0,-5.70312 0.875,0 0,0.8125 q 0.625,-0.9375 1.8125,-0.9375 0.51562,0 0.95312,0.1875 0.4375,0.17187 0.64063,0.48437 0.21875,0.29688 0.3125,0.70313 0.0469,0.28125 0.0469,0.95312 l 0,3.5 -0.96875,0 0,-3.46875 q 0,-0.59375 -0.10937,-0.875 -0.10938,-0.29687 -0.40625,-0.46875 -0.28125,-0.1875 -0.67188,-0.1875 -0.60937,0 -1.0625,0.39063 -0.45312,0.39062 -0.45312,1.5 l 0,3.10937 -0.96875,0 z m 9.66085,-0.70312 q -0.54687,0.45312 -1.04687,0.64062 -0.48438,0.1875 -1.0625,0.1875 -0.9375,0 -1.45313,-0.45312 -0.5,-0.46875 -0.5,-1.17188 0,-0.42187 0.1875,-0.76562 0.20313,-0.34375 0.5,-0.54688 0.3125,-0.21875 0.70313,-0.32812 0.28125,-0.0781 0.85937,-0.14063 1.17188,-0.14062 1.71875,-0.34375 0.0156,-0.1875 0.0156,-0.25 0,-0.59375 -0.28125,-0.82812 -0.35938,-0.32813 -1.09375,-0.32813 -0.6875,0 -1.01563,0.23438 -0.3125,0.23437 -0.46875,0.84375 l -0.95312,-0.125 q 0.125,-0.60938 0.42187,-0.98438 0.29688,-0.375 0.85938,-0.5625 0.5625,-0.20312 1.29687,-0.20312 0.73438,0 1.1875,0.17187 0.45313,0.17188 0.65625,0.4375 0.21875,0.25 0.3125,0.64063 0.0469,0.25 0.0469,0.90625 l 0,1.28125 q 0,1.34375 0.0625,1.70312 0.0625,0.35938 0.25,0.6875 l -1.01563,0 q -0.15625,-0.29687 -0.1875,-0.70312 z m -0.0937,-2.15625 q -0.51562,0.21875 -1.57812,0.35937 -0.59375,0.0937 -0.84375,0.20313 -0.23438,0.0937 -0.375,0.3125 -0.14063,0.20312 -0.14063,0.45312 0,0.39063 0.29688,0.65625 0.29687,0.25 0.85937,0.25 0.5625,0 0.98438,-0.25 0.4375,-0.25 0.65625,-0.67187 0.14062,-0.32813 0.14062,-0.96875 l 0,-0.34375 z m 2.27027,2.85937 0,-7.875 0.96875,0 0,7.875 -0.96875,0 z" />
  <path
     style="fill:#6d9eeb;fill-rule:nonzero"
     inkscape:connector-curvature="0"
     id="path35"
     d="m 1.0001553,430.35549 71.9999997,0 0,30.55121 -71.9999997,0 z" />
  <path
     style="stroke:#000000;stroke-width:2;stroke-linecap:butt;stroke-linejoin:round"
     inkscape:connector-curvature="0"
     id="path37"
     d="m 1.0001553,430.35549 71.9999997,0 0,30.55121 -71.9999997,0 z" />
  <path
     style="fill:#000000;fill-rule:nonzero"
     inkscape:connector-curvature="0"
     id="path39"
     d="m 12.446915,449.37111 0,-7.87503 5.3125,0 0,0.9375 -4.28125,0 0,2.4375 3.70312,0 0,0.92187 -3.70312,0 0,3.57816 -1.03125,0 z m 6.33739,-6.76566 0,-1.10937 0.96875,0 0,1.10937 -0.96875,0 z m 0,6.76566 0,-5.70316 0.96875,0 0,5.70316 -0.96875,0 z m 2.33622,0 0,-7.87503 0.96875,0 0,7.87503 -0.96875,0 z m 6.28936,-1.84375 1,0.125 q -0.23438,0.875 -0.875,1.35937 -0.64063,0.48438 -1.625,0.48438 -1.25,0 -1.98438,-0.76563 -0.73437,-0.76562 -0.73437,-2.15628 0,-1.45312 0.73437,-2.23437 0.75,-0.79688 1.92188,-0.79688 1.15625,0 1.875,0.78125 0.71875,0.76563 0.71875,2.1875 0,0.0781 0,0.25 l -4.25,0 q 0.0469,0.93753 0.51562,1.43753 0.48438,0.5 1.20313,0.5 0.53125,0 0.90625,-0.26562 0.375,-0.28125 0.59375,-0.90625 z m -3.17188,-1.56253 3.1875,0 q -0.0625,-0.71875 -0.35937,-1.07813 -0.46875,-0.54687 -1.20313,-0.54687 -0.67187,0 -1.125,0.45312 -0.45312,0.4375 -0.5,1.17188 z m 4.81713,1.70315 0.95312,-0.15625 q 0.0781,0.57813 0.4375,0.89063 0.375,0.29687 1.03125,0.29687 0.67188,0 0.98438,-0.26562 0.32812,-0.26563 0.32812,-0.64063 0,-0.32812 -0.28125,-0.51565 -0.20312,-0.125 -0.98437,-0.32813 -1.0625,-0.26562 -1.48438,-0.45312 -0.40625,-0.20313 -0.625,-0.54688 -0.20312,-0.34375 -0.20312,-0.76562 0,-0.39063 0.17187,-0.70313 0.17188,-0.32812 0.48438,-0.54687 0.21875,-0.17188 0.60937,-0.28125 0.39063,-0.10938 0.82813,-0.10938 0.67187,0 1.17187,0.1875 0.51563,0.1875 0.75,0.53125 0.25,0.32813 0.34375,0.875 l -0.9375,0.125 q -0.0781,-0.4375 -0.39062,-0.67187 -0.29688,-0.25 -0.85938,-0.25 -0.67187,0 -0.95312,0.21875 -0.28125,0.21875 -0.28125,0.51562 0,0.1875 0.10937,0.32813 0.125,0.15625 0.375,0.26562 0.14063,0.0469 0.85938,0.25 1.01562,0.26563 1.42187,0.4375 0.40625,0.17188 0.64063,0.51563 0.23437,0.32812 0.23437,0.82815 0,0.48438 -0.28125,0.90625 -0.28125,0.42188 -0.8125,0.65625 -0.53125,0.23438 -1.20312,0.23438 -1.10938,0 -1.70313,-0.45313 -0.57812,-0.46875 -0.73437,-1.375 z m 5.67187,3.90625 -0.10937,-0.90625 q 0.3125,0.0781 0.54687,0.0781 0.32813,0 0.51563,-0.10938 0.20312,-0.10937 0.3125,-0.29687 0.0937,-0.14063 0.29687,-0.71875 0.0312,-0.0781 0.0937,-0.23438 l -2.17187,-5.71878 1.04687,0 1.1875,3.29688 q 0.23438,0.64065 0.40625,1.32815 0.17188,-0.67187 0.40625,-1.2969 l 1.21875,-3.32813 0.96875,0 -2.17187,5.79691 q -0.34375,0.9375 -0.54688,1.29687 -0.25,0.48438 -0.59375,0.70313 -0.32812,0.21875 -0.78125,0.21875 -0.28125,0 -0.625,-0.10938 z m 4.98438,-3.90625 0.95312,-0.15625 q 0.0781,0.57813 0.4375,0.89063 0.375,0.29687 1.03125,0.29687 0.67188,0 0.98438,-0.26562 0.32812,-0.26563 0.32812,-0.64063 0,-0.32812 -0.28125,-0.51565 -0.20312,-0.125 -0.98437,-0.32813 -1.0625,-0.26562 -1.48438,-0.45312 -0.40625,-0.20313 -0.625,-0.54688 -0.20312,-0.34375 -0.20312,-0.76562 0,-0.39063 0.17187,-0.70313 0.17188,-0.32812 0.48438,-0.54687 0.21875,-0.17188 0.60937,-0.28125 0.39063,-0.10938 0.82813,-0.10938 0.67187,0 1.17187,0.1875 0.51563,0.1875 0.75,0.53125 0.25,0.32813 0.34375,0.875 l -0.9375,0.125 q -0.0781,-0.4375 -0.39062,-0.67187 -0.29688,-0.25 -0.85938,-0.25 -0.67187,0 -0.95312,0.21875 -0.28125,0.21875 -0.28125,0.51562 0,0.1875 0.10937,0.32813 0.125,0.15625 0.375,0.26562 0.14063,0.0469 0.85938,0.25 1.01562,0.26563 1.42187,0.4375 0.40625,0.17188 0.64063,0.51563 0.23437,0.32812 0.23437,0.82815 0,0.48438 -0.28125,0.90625 -0.28125,0.42188 -0.8125,0.65625 -0.53125,0.23438 -1.20312,0.23438 -1.10938,0 -1.70313,-0.45313 -0.57812,-0.46875 -0.73437,-1.375 z m 7.82812,0.84375 0.125,0.84375 q -0.40625,0.0937 -0.71875,0.0937 -0.53125,0 -0.82812,-0.17187 -0.28125,-0.17188 -0.40625,-0.4375 -0.10938,-0.26563 -0.10938,-1.14063 l 0,-3.28128 -0.71875,0 0,-0.75 0.71875,0 0,-1.40625 0.95313,-0.59375 0,2 0.98437,0 0,0.75 -0.98437,0 0,3.34378 q 0,0.40625 0.0469,0.53125 0.0625,0.10938 0.17188,0.1875 0.125,0.0625 0.32812,0.0625 0.17188,0 0.4375,-0.0312 z m 4.7419,-0.98437 1,0.125 q -0.23438,0.875 -0.875,1.35937 -0.64063,0.48438 -1.625,0.48438 -1.25,0 -1.98438,-0.76563 -0.73437,-0.76562 -0.73437,-2.15628 0,-1.45312 0.73437,-2.23437 0.75,-0.79688 1.92188,-0.79688 1.15625,0 1.875,0.78125 0.71875,0.76563 0.71875,2.1875 0,0.0781 0,0.25 l -4.25,0 q 0.0469,0.93753 0.51562,1.43753 0.48438,0.5 1.20313,0.5 0.53125,0 0.90625,-0.26562 0.375,-0.28125 0.59375,-0.90625 z m -3.17188,-1.56253 3.1875,0 q -0.0625,-0.71875 -0.35937,-1.07813 -0.46875,-0.54687 -1.20313,-0.54687 -0.67187,0 -1.125,0.45312 -0.45312,0.4375 -0.5,1.17188 z m 5.19213,3.40628 0,-5.70316 0.875,0 0,0.79688 q 0.26562,-0.42188 0.70312,-0.67188 0.45313,-0.25 1.01563,-0.25 0.64062,0 1.04687,0.26563 0.40625,0.25 0.57813,0.73437 0.67187,-1 1.75,-1 0.85937,0 1.3125,0.46875 0.45312,0.46875 0.45312,1.4375 l 0,3.92191 -0.95312,0 0,-3.59378 q 0,-0.57813 -0.0937,-0.82813 -0.0937,-0.26562 -0.34375,-0.42187 -0.25,-0.15625 -0.57813,-0.15625 -0.60937,0 -1.01562,0.40625 -0.39063,0.40625 -0.39063,1.28125 l 0,3.31253 -0.96875,0 0,-3.70316 q 0,-0.64062 -0.23437,-0.96875 -0.23438,-0.32812 -0.76563,-0.32812 -0.40625,0 -0.76562,0.21875 -0.34375,0.21875 -0.5,0.64062 -0.15625,0.40625 -0.15625,1.1875 l 0,2.95316 -0.96875,0 z" />
  <path
     style="fill:#ffff00;fill-rule:nonzero"
     inkscape:connector-curvature="0"
     id="path41"
     d="m 57.000155,317.69933 72.000005,0 0,30.55118 -72.000005,0 z" />
  <path
     style="stroke:#000000;stroke-width:2;stroke-linecap:butt;stroke-linejoin:round"
     inkscape:connector-curvature="0"
     id="path43"
     d="m 57.000155,317.69933 72.000005,0 0,30.55118 -72.000005,0 z" />
  <path
     style="fill:#000000;fill-rule:nonzero"
     inkscape:connector-curvature="0"
     id="path45"
     d="m 74.303105,336.71492 0,-7.875 1.0625,0 4.14062,6.1875 0,-6.1875 1,0 0,7.875 -1.07812,0 -4.125,-6.1875 0,6.1875 -1,0 z m 11.47687,-1.84375 1,0.125 q -0.23438,0.875 -0.875,1.35937 -0.64063,0.48438 -1.625,0.48438 -1.25,0 -1.98438,-0.76563 -0.73437,-0.76562 -0.73437,-2.15625 0,-1.45312 0.73437,-2.23437 0.75,-0.79688 1.92188,-0.79688 1.15625,0 1.875,0.78125 0.71875,0.76563 0.71875,2.1875 0,0.0781 0,0.25 l -4.25,0 q 0.0469,0.9375 0.51562,1.4375 0.48438,0.5 1.20313,0.5 0.53125,0 0.90625,-0.26562 0.375,-0.28125 0.59375,-0.90625 z m -3.17188,-1.5625 3.1875,0 q -0.0625,-0.71875 -0.35937,-1.07813 -0.46875,-0.54687 -1.20313,-0.54687 -0.67187,0 -1.125,0.45312 -0.45312,0.4375 -0.5,1.17188 z m 7.31711,2.54687 0.125,0.84375 q -0.40625,0.0937 -0.71875,0.0937 -0.53125,0 -0.82812,-0.17187 -0.28125,-0.17188 -0.40625,-0.4375 -0.10938,-0.26563 -0.10938,-1.14063 l 0,-3.28125 -0.71875,0 0,-0.75 0.71875,0 0,-1.40625 0.95313,-0.59375 0,2 0.98437,0 0,0.75 -0.98437,0 0,3.34375 q 0,0.40625 0.0469,0.53125 0.0625,0.10938 0.17188,0.1875 0.125,0.0625 0.32812,0.0625 0.17188,0 0.4375,-0.0312 z m 1.89816,0.85938 -1.75,-5.70313 1,0 0.90625,3.29688 0.34375,1.21875 q 0.0156,-0.0937 0.29688,-1.17188 l 0.90625,-3.34375 0.98437,0 0.85938,3.3125 0.28125,1.07813 0.32812,-1.09375 0.98438,-3.29688 0.9375,0 -1.78125,5.70313 -1,0 -0.92188,-3.42188 -0.21875,-0.96875 -1.15625,4.39063 -1,0 z m 6.27372,-2.85938 q 0,-1.57812 0.89062,-2.34375 0.73438,-0.625 1.796885,-0.625 1.17187,0 1.90625,0.76563 0.75,0.76562 0.75,2.125 0,1.10937 -0.32813,1.75 -0.32812,0.625 -0.96875,0.96875 -0.625,0.34375 -1.35937,0.34375 -1.203135,0 -1.953135,-0.76563 -0.73437,-0.76562 -0.73437,-2.21875 z m 1,0 q 0,1.10938 0.46875,1.65625 0.484375,0.53125 1.218755,0.53125 0.71875,0 1.1875,-0.54687 0.48437,-0.54688 0.48437,-1.67188 0,-1.04687 -0.48437,-1.59375 -0.48438,-0.54687 -1.1875,-0.54687 -0.73438,0 -1.218755,0.54687 -0.46875,0.53125 -0.46875,1.625 z m 5.285885,2.85938 0,-5.70313 0.85938,0 0,0.85938 q 0.34375,-0.60938 0.625,-0.79688 0.28125,-0.1875 0.60937,-0.1875 0.5,0 1,0.3125 l -0.32812,0.89063 q -0.35938,-0.20313 -0.71875,-0.20313 -0.3125,0 -0.5625,0.1875 -0.25,0.1875 -0.35938,0.53125 -0.15625,0.51563 -0.15625,1.125 l 0,2.98438 -0.96875,0 z m 3.56424,0 0,-7.875 0.96875,0 0,4.48437 2.28125,-2.3125 1.25,0 -2.17187,2.10938 2.39062,3.59375 -1.1875,0 -1.89062,-2.92188 -0.67188,0.65625 0,2.26563 -0.96875,0 z" />
  <path
     style="fill:#000000;fill-opacity:0;fill-rule:nonzero"
     inkscape:connector-curvature="0"
     id="path47"
     d="m 37.000155,477.77805 0,-16.88184" />
  <path
     style="stroke:#000000;stroke-width:2;stroke-linecap:butt;stroke-linejoin:round"
     inkscape:connector-curvature="0"
     id="path49"
     d="m 37.000155,477.77805 0,-4.88184" />
  <path
     style="fill:#000000;fill-rule:evenodd;stroke:#000000;stroke-width:2;stroke-linecap:butt"
     inkscape:connector-curvature="0"
     id="path51"
     d="m 40.303625,472.8962 -3.30347,-9.07623 -3.30346,9.07623 z" />
  <path
     style="fill:#000000;fill-opacity:0;fill-rule:nonzero"
     inkscape:connector-curvature="0"
     id="path53"
     d="m 37.000155,430.35549 56,-23.08661" />
  <path
     style="stroke:#000000;stroke-width:2;stroke-linecap:butt;stroke-linejoin:round"
     inkscape:connector-curvature="0"
     id="path55"
     d="m 37.000155,430.35549 44.90579,-18.51291" />
  <path
     style="fill:#000000;fill-rule:evenodd;stroke:#000000;stroke-width:2;stroke-linecap:butt"
     inkscape:connector-curvature="0"
     id="path57"
     d="m 83.165045,414.89669 7.132,-6.51343 -9.65017,0.40521 z" />
  <path
     style="fill:#000000;fill-opacity:0;fill-rule:nonzero"
     inkscape:connector-curvature="0"
     id="path59"
     d="M 125.00016,477.77805 93.000155,407.2584" />
  <path
     style="stroke:#000000;stroke-width:2;stroke-linecap:butt;stroke-linejoin:round"
     inkscape:connector-curvature="0"
     id="path61"
     d="M 125.00016,477.77805 97.958785,418.18598" />
  <path
     style="fill:#000000;fill-rule:evenodd;stroke:#000000;stroke-width:2;stroke-linecap:butt"
     inkscape:connector-curvature="0"
     id="path63"
     d="m 100.96705,416.82088 -6.758715,-6.89999 0.74223,9.63012 z" />
  <path
     style="fill:#000000;fill-opacity:0;fill-rule:nonzero"
     inkscape:connector-curvature="0"
     id="path65"
     d="m 224.44898,391.9959 -95.46457,0" />
  <path
     style="stroke:#000000;stroke-width:2;stroke-linecap:butt;stroke-linejoin:round"
     inkscape:connector-curvature="0"
     id="path67"
     d="m 224.44898,391.9959 -83.46457,0" />
  <path
     style="fill:#000000;fill-rule:evenodd;stroke:#000000;stroke-width:2;stroke-linecap:butt"
     inkscape:connector-curvature="0"
     id="path69"
     d="m 140.98441,388.69243 -9.0762,3.30347 9.0762,3.30346 z" />
  <path
     style="fill:#000000;fill-opacity:0;fill-rule:nonzero"
     inkscape:connector-curvature="0"
     id="path71"
     d="m 93.000155,376.71508 0,-28.47244" />
  <path
     style="stroke:#000000;stroke-width:2;stroke-linecap:butt;stroke-linejoin:round"
     inkscape:connector-curvature="0"
     id="path73"
     d="m 93.000155,376.71508 0,-16.47244" />
  <path
     style="fill:#000000;fill-rule:evenodd;stroke:#000000;stroke-width:2;stroke-linecap:butt"
     inkscape:connector-curvature="0"
     id="path75"
     d="m 96.303625,360.24263 -3.30347,-9.0762 -3.30346,9.0762 z" />
  <path
     style="fill:#00ff00;fill-rule:nonzero"
     inkscape:connector-curvature="0"
     id="path77"
     d="m 89.000155,90.557589 72.000005,0 0,30.551181 -72.000005,0 z" />
  <path
     style="stroke:#000000;stroke-width:2;stroke-linecap:butt;stroke-linejoin:round"
     inkscape:connector-curvature="0"
     id="path79"
     d="m 89.000155,90.557589 72.000005,0 0,30.551181 -72.000005,0 z" />
  <path
     style="fill:#000000;fill-rule:nonzero"
     inkscape:connector-curvature="0"
     id="path81"
     d="m 117.84681,106.80756 1.04687,0.26562 q -0.32812,1.28125 -1.1875,1.96875 -0.84375,0.67188 -2.07812,0.67188 -1.28125,0 -2.07813,-0.51563 -0.79687,-0.53125 -1.21875,-1.51562 -0.40625,-0.98438 -0.40625,-2.10938 0,-1.21875 0.46875,-2.14062 0.46875,-0.92188 1.32813,-1.39063 0.875,-0.48437 1.92187,-0.48437 1.1875,0 1.98438,0.60937 0.8125,0.59375 1.125,1.6875 l -1.03125,0.25 q -0.26563,-0.85937 -0.79688,-1.25 -0.51562,-0.39062 -1.29687,-0.39062 -0.92188,0 -1.53125,0.4375 -0.60938,0.42187 -0.85938,1.15625 -0.23437,0.73437 -0.23437,1.51562 0,1 0.28125,1.75 0.29687,0.75 0.90625,1.125 0.625,0.375 1.34375,0.375 0.875,0 1.48437,-0.5 0.60938,-0.51562 0.82813,-1.51562 z m 1.92998,2.76562 0,-7.875 0.96875,0 0,7.875 -0.96875,0 z m 2.39872,-6.76562 0,-1.10938 0.96875,0 0,1.10938 -0.96875,0 z m 0,6.76562 0,-5.70312 0.96875,0 0,5.70312 -0.96875,0 z m 6.25811,-1.84375 1.00001,0.125 q -0.23437,0.875 -0.87501,1.35938 -0.64063,0.48437 -1.625,0.48437 -1.25,0 -1.98438,-0.76562 -0.73437,-0.76563 -0.73437,-2.15625 0,-1.45313 0.73437,-2.23438 0.75,-0.79687 1.92188,-0.79687 1.15625,0 1.875,0.78125 0.71876,0.76562 0.71876,2.1875 0,0.0781 0,0.25 l -4.25001,0 q 0.0469,0.9375 0.51562,1.4375 0.48438,0.5 1.20313,0.5 0.53125,0 0.90625,-0.26563 0.375,-0.28125 0.59375,-0.90625 z m -3.17188,-1.5625 3.1875,0 q -0.0625,-0.71875 -0.35937,-1.07812 -0.46875,-0.54688 -1.20313,-0.54688 -0.67187,0 -1.125,0.45313 -0.45312,0.4375 -0.5,1.17187 z m 5.19213,3.40625 0,-5.70312 0.875,0 0,0.8125 q 0.625,-0.9375 1.8125,-0.9375 0.51562,0 0.95312,0.1875 0.4375,0.17187 0.64063,0.48437 0.21875,0.29688 0.3125,0.70313 0.0469,0.28125 0.0469,0.95312 l 0,3.5 -0.96875,0 0,-3.46875 q 0,-0.59375 -0.10937,-0.875 -0.10938,-0.29687 -0.40625,-0.46875 -0.28125,-0.1875 -0.67188,-0.1875 -0.60937,0 -1.0625,0.39063 -0.45312,0.39062 -0.45312,1.5 l 0,3.10937 -0.96875,0 z m 8.05148,-0.85937 0.125,0.84375 q -0.40625,0.0937 -0.71875,0.0937 -0.53125,0 -0.82813,-0.17188 -0.28125,-0.17187 -0.40625,-0.4375 -0.10937,-0.26562 -0.10937,-1.14062 l 0,-3.28125 -0.71875,0 0,-0.75 0.71875,0 0,-1.40625 0.95312,-0.59375 0,2 0.98438,0 0,0.75 -0.98438,0 0,3.34375 q 0,0.40625 0.0469,0.53125 0.0625,0.10937 0.17187,0.1875 0.125,0.0625 0.32813,0.0625 0.17187,0 0.4375,-0.0312 z" />
  <path
     style="fill:#ff9900;fill-rule:nonzero"
     inkscape:connector-curvature="0"
     id="path83"
     d="m 363.9083,90.557589 72,0 0,30.551181 -72,0 z" />
  <path
     style="stroke:#000000;stroke-width:2;stroke-linecap:butt;stroke-linejoin:round"
     inkscape:connector-curvature="0"
     id="path85"
     d="m 363.9083,90.557589 72,0 0,30.551181 -72,0 z" />
  <path
     style="fill:#000000;fill-rule:nonzero"
     inkscape:connector-curvature="0"
     id="path87"
     d="m 380.48789,109.57318 0,-5.70313 0.85937,0 0,0.85938 q 0.34375,-0.60938 0.625,-0.79688 0.28125,-0.1875 0.60938,-0.1875 0.5,0 1,0.3125 l -0.32813,0.89063 q -0.35937,-0.20313 -0.71875,-0.20313 -0.3125,0 -0.5625,0.1875 -0.25,0.1875 -0.35937,0.53125 -0.15625,0.51563 -0.15625,1.125 l 0,2.98438 -0.96875,0 z m 7.28296,-0.70313 q -0.54688,0.45313 -1.04688,0.64063 -0.48437,0.1875 -1.0625,0.1875 -0.93747,0 -1.45309,-0.45313 -0.5,-0.46875 -0.5,-1.17187 0,-0.42188 0.1875,-0.76563 0.20312,-0.34375 0.5,-0.54687 0.3125,-0.21875 0.70309,-0.32813 0.28125,-0.0781 0.85938,-0.14062 1.17187,-0.14063 1.71875,-0.34375 0.0156,-0.1875 0.0156,-0.25 0,-0.59375 -0.28125,-0.82813 -0.35937,-0.32812 -1.09375,-0.32812 -0.6875,0 -1.01562,0.23437 -0.31247,0.23438 -0.46872,0.84375 l -0.95313,-0.125 q 0.125,-0.60937 0.42188,-0.98437 0.29687,-0.375 0.85934,-0.5625 0.5625,-0.20313 1.29688,-0.20313 0.73437,0 1.1875,0.17188 0.45312,0.17187 0.65625,0.4375 0.21875,0.25 0.3125,0.64062 0.0469,0.25 0.0469,0.90625 l 0,1.28125 q 0,1.34375 0.0625,1.70313 0.0625,0.35937 0.25,0.6875 l -1.01562,0 q -0.15625,-0.29688 -0.1875,-0.70313 z m -0.0937,-2.15625 q -0.51563,0.21875 -1.57813,0.35938 -0.59375,0.0937 -0.84375,0.20312 -0.23437,0.0937 -0.37497,0.3125 -0.14062,0.20313 -0.14062,0.45313 0,0.39062 0.29684,0.65625 0.29688,0.25 0.85938,0.25 0.5625,0 0.98437,-0.25 0.4375,-0.25 0.65625,-0.67188 0.14063,-0.32812 0.14063,-0.96875 l 0,-0.34375 z m 5.98901,2.85938 0,-0.71875 q -0.53125,0.84375 -1.59375,0.84375 -0.67187,0 -1.25,-0.375 -0.57812,-0.375 -0.89062,-1.04688 -0.3125,-0.67187 -0.3125,-1.54687 0,-0.85938 0.28125,-1.54688 0.29687,-0.70312 0.85937,-1.0625 0.5625,-0.375 1.26563,-0.375 0.51562,0 0.92187,0.21875 0.40625,0.21875 0.65625,0.5625 l 0,-2.82812 0.96875,0 0,7.875 -0.90625,0 z m -3.04687,-2.84375 q 0,1.09375 0.45312,1.64062 0.46875,0.53125 1.09375,0.53125 0.64063,0 1.07813,-0.51562 0.4375,-0.51563 0.4375,-1.57813 0,-1.17187 -0.45313,-1.71875 -0.4375,-0.54687 -1.10937,-0.54687 -0.64063,0 -1.07813,0.53125 -0.42187,0.51562 -0.42187,1.65625 z m 4.91089,-0.0156 q 0,-1.57812 0.89062,-2.34375 0.73438,-0.625 1.79688,-0.625 1.17187,0 1.90625,0.76563 0.75,0.76562 0.75,2.125 0,1.10937 -0.32813,1.75 -0.32812,0.625 -0.96875,0.96875 -0.625,0.34375 -1.35937,0.34375 -1.20313,0 -1.95313,-0.76563 -0.73437,-0.76562 -0.73437,-2.21875 z m 1,0 q 0,1.10938 0.46875,1.65625 0.48437,0.53125 1.21875,0.53125 0.71875,0 1.1875,-0.54687 0.48437,-0.54688 0.48437,-1.67188 0,-1.04687 -0.48437,-1.59375 -0.48438,-0.54687 -1.1875,-0.54687 -0.73438,0 -1.21875,0.54687 -0.46875,0.53125 -0.46875,1.625 z m 4.91089,1.15625 0.95312,-0.15625 q 0.0781,0.57813 0.4375,0.89063 0.375,0.29687 1.03125,0.29687 0.67188,0 0.98438,-0.26562 0.32812,-0.26563 0.32812,-0.64063 0,-0.32812 -0.28125,-0.51562 -0.20312,-0.125 -0.98437,-0.32813 -1.0625,-0.26562 -1.48438,-0.45312 -0.40625,-0.20313 -0.625,-0.54688 -0.20312,-0.34375 -0.20312,-0.76562 0,-0.39063 0.17187,-0.70313 0.17188,-0.32812 0.48438,-0.54687 0.21875,-0.17188 0.60937,-0.28125 0.39063,-0.10938 0.82813,-0.10938 0.67187,0 1.17187,0.1875 0.51563,0.1875 0.75,0.53125 0.25,0.32813 0.34375,0.875 l -0.9375,0.125 q -0.0781,-0.4375 -0.39062,-0.67187 -0.29688,-0.25 -0.85938,-0.25 -0.67187,0 -0.95312,0.21875 -0.28125,0.21875 -0.28125,0.51562 0,0.1875 0.10937,0.32813 0.125,0.15625 0.375,0.26562 0.14063,0.0469 0.85938,0.25 1.01562,0.26563 1.42187,0.4375 0.40625,0.17188 0.64063,0.51563 0.23437,0.32812 0.23437,0.82812 0,0.48438 -0.28125,0.90625 -0.28125,0.42188 -0.8125,0.65625 -0.53125,0.23438 -1.20312,0.23438 -1.10938,0 -1.70313,-0.45313 -0.57812,-0.46875 -0.73437,-1.375 z m 5.53125,2.17188 0.9375,0.14062 q 0.0625,0.4375 0.32812,0.64063 0.35938,0.26562 0.98438,0.26562 0.67187,0 1.03125,-0.26562 0.375,-0.26563 0.5,-0.75 0.0781,-0.29688 0.0781,-1.25 -0.64062,0.75 -1.59375,0.75 -1.17187,0 -1.8125,-0.84375 -0.64062,-0.85938 -0.64062,-2.04688 0,-0.8125 0.29687,-1.5 0.29688,-0.6875 0.84375,-1.0625 0.5625,-0.375 1.32813,-0.375 1,0 1.65625,0.8125 l 0,-0.6875 0.89062,0 0,4.92188 q 0,1.34375 -0.26562,1.89062 -0.26563,0.5625 -0.85938,0.875 -0.59375,0.32813 -1.45312,0.32813 -1.01563,0 -1.64063,-0.46875 -0.625,-0.45313 -0.60937,-1.375 z m 0.79687,-3.42188 q 0,1.125 0.4375,1.64063 0.45313,0.51562 1.125,0.51562 0.67188,0 1.125,-0.51562 0.45313,-0.51563 0.45313,-1.60938 0,-1.04687 -0.46875,-1.57812 -0.46875,-0.53125 -1.125,-0.53125 -0.64063,0 -1.09375,0.53125 -0.45313,0.51562 -0.45313,1.54687 z m 6.36395,2.95313 -1.75,-5.70313 1,0 0.90625,3.29688 0.34375,1.21875 q 0.0156,-0.0937 0.29688,-1.17188 l 0.90625,-3.34375 0.98437,0 0.85938,3.3125 0.28125,1.07813 0.32812,-1.09375 0.98438,-3.29688 0.9375,0 -1.78125,5.70313 -1,0 -0.92188,-3.42188 -0.21875,-0.96875 -1.15625,4.39063 -1,0 z" />
  <path
     style="fill:#999999;fill-rule:nonzero"
     inkscape:connector-curvature="0"
     id="path89"
     d="m 335.9083,477.77675 72,0 0,30.55121 -72,0 z" />
  <path
     style="stroke:#000000;stroke-width:2;stroke-linecap:butt;stroke-linejoin:round"
     inkscape:connector-curvature="0"
     id="path91"
     d="m 335.9083,477.77675 72,0 0,30.55121 -72,0 z" />
  <path
     style="fill:#000000;fill-rule:nonzero"
     inkscape:connector-curvature="0"
     id="path93"
     d="m 352.38401,496.79232 0,-7.875 5.3125,0 0,0.9375 -4.28125,0 0,2.4375 3.70312,0 0,0.92188 -3.70312,0 0,3.57812 -1.03125,0 z m 6.33737,-6.76562 0,-1.10938 0.96875,0 0,1.10938 -0.96875,0 z m 0,6.76562 0,-5.70312 0.96875,0 0,5.70312 -0.96875,0 z m 2.33624,0 0,-7.875 0.96875,0 0,7.875 -0.96875,0 z m 6.28934,-1.84375 1,0.125 q -0.23437,0.875 -0.875,1.35938 -0.64062,0.48437 -1.625,0.48437 -1.25,0 -1.98437,-0.76562 -0.73438,-0.76563 -0.73438,-2.15625 0,-1.45313 0.73438,-2.23438 0.75,-0.79687 1.92187,-0.79687 1.15625,0 1.875,0.78125 0.71875,0.76562 0.71875,2.1875 0,0.0781 0,0.25 l -4.25,0 q 0.0469,0.9375 0.51563,1.4375 0.48437,0.5 1.20312,0.5 0.53125,0 0.90625,-0.26563 0.375,-0.28125 0.59375,-0.90625 z m -3.17187,-1.5625 3.1875,0 q -0.0625,-0.71875 -0.35938,-1.07812 -0.46875,-0.54688 -1.20312,-0.54688 -0.67188,0 -1.125,0.45313 -0.45313,0.4375 -0.5,1.17187 z m 4.81714,1.70313 0.95312,-0.15625 q 0.0781,0.57812 0.4375,0.89062 0.375,0.29688 1.03125,0.29688 0.67188,0 0.98438,-0.26563 0.32812,-0.26562 0.32812,-0.64062 0,-0.32813 -0.28125,-0.51563 -0.20312,-0.125 -0.98437,-0.32812 -1.0625,-0.26563 -1.48438,-0.45313 -0.40625,-0.20312 -0.625,-0.54687 -0.20312,-0.34375 -0.20312,-0.76563 0,-0.39062 0.17187,-0.70312 0.17188,-0.32813 0.48438,-0.54688 0.21875,-0.17187 0.60937,-0.28125 0.39063,-0.10937 0.82813,-0.10937 0.67187,0 1.17187,0.1875 0.51563,0.1875 0.75,0.53125 0.25,0.32812 0.34375,0.875 l -0.9375,0.125 q -0.0781,-0.4375 -0.39062,-0.67188 -0.29688,-0.25 -0.85938,-0.25 -0.67187,0 -0.95312,0.21875 -0.28125,0.21875 -0.28125,0.51563 0,0.1875 0.10937,0.32812 0.125,0.15625 0.375,0.26563 0.14063,0.0469 0.85938,0.25 1.01562,0.26562 1.42187,0.4375 0.40625,0.17187 0.64063,0.51562 0.23437,0.32813 0.23437,0.82813 0,0.48437 -0.28125,0.90625 -0.28125,0.42187 -0.8125,0.65625 -0.53125,0.23437 -1.20312,0.23437 -1.10938,0 -1.70313,-0.45312 -0.57812,-0.46875 -0.73437,-1.375 z m 7.82812,0.84375 0.125,0.84375 q -0.40625,0.0937 -0.71875,0.0937 -0.53125,0 -0.82812,-0.17188 -0.28125,-0.17187 -0.40625,-0.4375 -0.10938,-0.26562 -0.10938,-1.14062 l 0,-3.28125 -0.71875,0 0,-0.75 0.71875,0 0,-1.40625 0.95313,-0.59375 0,2 0.98437,0 0,0.75 -0.98437,0 0,3.34375 q 0,0.40625 0.0469,0.53125 0.0625,0.10937 0.17188,0.1875 0.125,0.0625 0.32812,0.0625 0.17188,0 0.4375,-0.0312 z m 0.47626,-2 q 0,-1.57813 0.89062,-2.34375 0.73438,-0.625 1.79688,-0.625 1.17187,0 1.90625,0.76562 0.75,0.76563 0.75,2.125 0,1.10938 -0.32813,1.75 -0.32812,0.625 -0.96875,0.96875 -0.625,0.34375 -1.35937,0.34375 -1.20313,0 -1.95313,-0.76562 -0.73437,-0.76563 -0.73437,-2.21875 z m 1,0 q 0,1.10937 0.46875,1.65625 0.48437,0.53125 1.21875,0.53125 0.71875,0 1.1875,-0.54688 0.48437,-0.54687 0.48437,-1.67187 0,-1.04688 -0.48437,-1.59375 -0.48438,-0.54688 -1.1875,-0.54688 -0.73438,0 -1.21875,0.54688 -0.46875,0.53125 -0.46875,1.625 z m 5.28589,2.85937 0,-5.70312 0.85937,0 0,0.85937 q 0.34375,-0.60937 0.625,-0.79687 0.28125,-0.1875 0.60938,-0.1875 0.5,0 1,0.3125 l -0.32813,0.89062 q -0.35937,-0.20312 -0.71875,-0.20312 -0.3125,0 -0.5625,0.1875 -0.25,0.1875 -0.35937,0.53125 -0.15625,0.51562 -0.15625,1.125 l 0,2.98437 -0.96875,0 z m 7.45483,-1.84375 1,0.125 q -0.23437,0.875 -0.875,1.35938 -0.64062,0.48437 -1.625,0.48437 -1.25,0 -1.98437,-0.76562 -0.73438,-0.76563 -0.73438,-2.15625 0,-1.45313 0.73438,-2.23438 0.75,-0.79687 1.92187,-0.79687 1.15625,0 1.875,0.78125 0.71875,0.76562 0.71875,2.1875 0,0.0781 0,0.25 l -4.25,0 q 0.0469,0.9375 0.51563,1.4375 0.48437,0.5 1.20312,0.5 0.53125,0 0.90625,-0.26563 0.375,-0.28125 0.59375,-0.90625 z m -3.17187,-1.5625 3.1875,0 q -0.0625,-0.71875 -0.35938,-1.07812 -0.46875,-0.54688 -1.20312,-0.54688 -0.67188,0 -1.125,0.45313 -0.45313,0.4375 -0.5,1.17187 z" />
  <path
     style="fill:#00ff00;fill-rule:nonzero"
     inkscape:connector-curvature="0"
     id="path95"
     d="m 391.8978,376.71375 72,0 0,30.55118 -72,0 z" />
  <path
     style="stroke:#000000;stroke-width:2;stroke-linecap:butt;stroke-linejoin:round"
     inkscape:connector-curvature="0"
     id="path97"
     d="m 391.8978,376.71375 72,0 0,30.55118 -72,0 z" />
  <path
     style="fill:#000000;fill-rule:nonzero"
     inkscape:connector-curvature="0"
     id="path99"
     d="m 416.88306,391.90123 q 0,-1.96875 1.04687,-3.07812 1.0625,-1.10938 2.71875,-1.10938 1.09375,0 1.96875,0.53125 0.875,0.51563 1.32813,1.45313 0.46875,0.92187 0.46875,2.10937 0,1.1875 -0.48438,2.14063 -0.48437,0.9375 -1.375,1.4375 -0.875,0.48437 -1.90625,0.48437 -1.10937,0 -1.98437,-0.53125 -0.875,-0.54687 -1.32813,-1.46875 -0.45312,-0.9375 -0.45312,-1.96875 z m 1.07812,0.0156 q 0,1.42187 0.76563,2.25 0.76562,0.8125 1.92187,0.8125 1.17188,0 1.92188,-0.82813 0.76562,-0.82812 0.76562,-2.35937 0,-0.95313 -0.32812,-1.67188 -0.3125,-0.71875 -0.9375,-1.10937 -0.625,-0.39063 -1.40625,-0.39063 -1.10938,0 -1.90625,0.76563 -0.79688,0.75 -0.79688,2.53125 z m 7.17939,1.28125 0.98437,-0.0781 q 0.0625,0.57813 0.3125,0.96875 0.26563,0.375 0.79688,0.60938 0.53125,0.23437 1.20312,0.23437 0.60938,0 1.0625,-0.17187 0.45313,-0.1875 0.67188,-0.48438 0.23437,-0.3125 0.23437,-0.6875 0,-0.375 -0.21875,-0.64062 -0.21875,-0.28125 -0.71875,-0.46875 -0.3125,-0.125 -1.40625,-0.375 -1.07812,-0.26563 -1.51562,-0.5 -0.5625,-0.29688 -0.84375,-0.73438 -0.26563,-0.4375 -0.26563,-0.98437 0,-0.59375 0.32813,-1.10938 0.34375,-0.51562 0.98437,-0.78125 0.65625,-0.28125 1.45313,-0.28125 0.875,0 1.54687,0.29688 0.67188,0.28125 1.03125,0.82812 0.35938,0.54688 0.39063,1.23438 l -1,0.0781 q -0.0781,-0.75 -0.54688,-1.125 -0.46875,-0.39062 -1.375,-0.39062 -0.9375,0 -1.375,0.35937 -0.4375,0.34375 -0.4375,0.82813 0,0.42187 0.3125,0.70312 0.29688,0.26563 1.5625,0.5625 1.28125,0.28125 1.75,0.5 0.6875,0.3125 1.01563,0.79688 0.32812,0.48437 0.32812,1.125 0,0.625 -0.35937,1.1875 -0.35938,0.54687 -1.04688,0.85937 -0.67187,0.3125 -1.51562,0.3125 -1.0625,0 -1.78125,-0.3125 -0.71875,-0.3125 -1.14063,-0.9375 -0.40625,-0.625 -0.42187,-1.42187 z m 7.45141,2.53125 0,-7.875 2.71875,0 q 0.92188,0 1.40625,0.10937 0.67188,0.15625 1.15625,0.5625 0.60938,0.53125 0.92188,1.35938 0.3125,0.8125 0.3125,1.85937 0,0.90625 -0.21875,1.59375 -0.20313,0.6875 -0.53125,1.14063 -0.32813,0.45312 -0.71875,0.71875 -0.39063,0.26562 -0.9375,0.40625 -0.54688,0.125 -1.26563,0.125 l -2.84375,0 z m 1.04688,-0.92188 1.6875,0 q 0.76562,0 1.20312,-0.14062 0.45313,-0.15625 0.71875,-0.42188 0.375,-0.375 0.57813,-1 0.20312,-0.625 0.20312,-1.51562 0,-1.23438 -0.40625,-1.89063 -0.40625,-0.67187 -0.98437,-0.89062 -0.42188,-0.15625 -1.34375,-0.15625 l -1.65625,0 0,6.01562 z" />
  <path
     style="fill:#999999;fill-rule:nonzero"
     inkscape:connector-curvature="0"
     id="path101"
     d="m 427.9083,477.77675 72,0 0,30.55121 -72,0 z" />
  <path
     style="stroke:#000000;stroke-width:2;stroke-linecap:butt;stroke-linejoin:round"
     inkscape:connector-curvature="0"
     id="path103"
     d="m 427.9083,477.77675 72,0 0,30.55121 -72,0 z" />
  <path
     style="fill:#000000;fill-rule:nonzero"
     inkscape:connector-curvature="0"
     id="path105"
     d="m 446.7457,494.55795 0.9375,-0.125 q 0.0469,0.89063 0.34375,1.23438 0.29687,0.32812 0.82812,0.32812 0.39063,0 0.67188,-0.17187 0.29687,-0.1875 0.40625,-0.48438 0.10937,-0.3125 0.10937,-1 l 0,-5.42187 1.03125,0 0,5.35937 q 0,1 -0.23437,1.54688 -0.23438,0.53125 -0.76563,0.82812 -0.51562,0.28125 -1.20312,0.28125 -1.04688,0 -1.59375,-0.59375 -0.54688,-0.60937 -0.53125,-1.78125 z m 5.375,-0.625 q 0,-1.57812 0.89062,-2.34375 0.73438,-0.625 1.79688,-0.625 1.17187,0 1.90625,0.76563 0.75,0.76562 0.75,2.125 0,1.10937 -0.32813,1.75 -0.32812,0.625 -0.96875,0.96875 -0.625,0.34375 -1.35937,0.34375 -1.20313,0 -1.95313,-0.76563 -0.73437,-0.76562 -0.73437,-2.21875 z m 1,0 q 0,1.10938 0.46875,1.65625 0.48437,0.53125 1.21875,0.53125 0.71875,0 1.1875,-0.54687 0.48437,-0.54688 0.48437,-1.67188 0,-1.04687 -0.48437,-1.59375 -0.48438,-0.54687 -1.1875,-0.54687 -0.73438,0 -1.21875,0.54687 -0.46875,0.53125 -0.46875,1.625 z m 9.03589,2.85938 0,-0.84375 q -0.67188,0.96875 -1.8125,0.96875 -0.5,0 -0.95313,-0.1875 -0.4375,-0.20313 -0.65625,-0.48438 -0.20312,-0.29687 -0.28125,-0.71875 -0.0625,-0.28125 -0.0625,-0.90625 l 0,-3.53125 0.96875,0 0,3.15625 q 0,0.76563 0.0625,1.03125 0.0937,0.375 0.375,0.59375 0.29688,0.21875 0.73438,0.21875 0.4375,0 0.8125,-0.21875 0.39062,-0.23437 0.54687,-0.60937 0.15625,-0.39063 0.15625,-1.10938 l 0,-3.0625 0.96875,0 0,5.70313 -0.85937,0 z m 2.17645,0 0,-5.70313 0.85938,0 0,0.85938 q 0.34375,-0.60938 0.625,-0.79688 0.28125,-0.1875 0.60937,-0.1875 0.5,0 1,0.3125 l -0.32812,0.89063 q -0.35938,-0.20313 -0.71875,-0.20313 -0.3125,0 -0.5625,0.1875 -0.25,0.1875 -0.35938,0.53125 -0.15625,0.51563 -0.15625,1.125 l 0,2.98438 -0.96875,0 z m 3.54865,0 0,-5.70313 0.875,0 0,0.8125 q 0.625,-0.9375 1.8125,-0.9375 0.51562,0 0.95312,0.1875 0.4375,0.17188 0.64063,0.48438 0.21875,0.29687 0.3125,0.70312 0.0469,0.28125 0.0469,0.95313 l 0,3.5 -0.96875,0 0,-3.46875 q 0,-0.59375 -0.10937,-0.875 -0.10938,-0.29688 -0.40625,-0.46875 -0.28125,-0.1875 -0.67188,-0.1875 -0.60937,0 -1.0625,0.39062 -0.45312,0.39063 -0.45312,1.5 l 0,3.10938 -0.96875,0 z m 9.66089,-0.70313 q -0.54688,0.45313 -1.04688,0.64063 -0.48437,0.1875 -1.0625,0.1875 -0.9375,0 -1.45312,-0.45313 -0.5,-0.46875 -0.5,-1.17187 0,-0.42188 0.1875,-0.76563 0.20312,-0.34375 0.5,-0.54687 0.3125,-0.21875 0.70312,-0.32813 0.28125,-0.0781 0.85938,-0.14062 1.17187,-0.14063 1.71875,-0.34375 0.0156,-0.1875 0.0156,-0.25 0,-0.59375 -0.28125,-0.82813 -0.35937,-0.32812 -1.09375,-0.32812 -0.6875,0 -1.01562,0.23437 -0.3125,0.23438 -0.46875,0.84375 l -0.95313,-0.125 q 0.125,-0.60937 0.42188,-0.98437 0.29687,-0.375 0.85937,-0.5625 0.5625,-0.20313 1.29688,-0.20313 0.73437,0 1.1875,0.17188 0.45312,0.17187 0.65625,0.4375 0.21875,0.25 0.3125,0.64062 0.0469,0.25 0.0469,0.90625 l 0,1.28125 q 0,1.34375 0.0625,1.70313 0.0625,0.35937 0.25,0.6875 l -1.01562,0 q -0.15625,-0.29688 -0.1875,-0.70313 z m -0.0937,-2.15625 q -0.51563,0.21875 -1.57813,0.35938 -0.59375,0.0937 -0.84375,0.20312 -0.23437,0.0937 -0.375,0.3125 -0.14062,0.20313 -0.14062,0.45313 0,0.39062 0.29687,0.65625 0.29688,0.25 0.85938,0.25 0.5625,0 0.98437,-0.25 0.4375,-0.25 0.65625,-0.67188 0.14063,-0.32812 0.14063,-0.96875 l 0,-0.34375 z m 2.2702,2.85938 0,-7.875 0.96875,0 0,7.875 -0.96875,0 z" />
  <path
     style="fill:#6d9eeb;fill-rule:nonzero"
     inkscape:connector-curvature="0"
     id="path107"
     d="m 335.9083,428.80037 72,0 0,30.55121 -72,0 z" />
  <path
     style="stroke:#000000;stroke-width:2;stroke-linecap:butt;stroke-linejoin:round"
     inkscape:connector-curvature="0"
     id="path109"
     d="m 335.9083,428.80037 72,0 0,30.55121 -72,0 z" />
  <path
     style="fill:#000000;fill-rule:nonzero"
     inkscape:connector-curvature="0"
     id="path111"
     d="m 347.35506,447.81595 0,-7.87497 5.3125,0 0,0.9375 -4.28125,0 0,2.4375 3.70312,0 0,0.92188 -3.70312,0 0,3.57809 -1.03125,0 z m 6.3374,-6.76559 0,-1.10938 0.96875,0 0,1.10938 -0.96875,0 z m 0,6.76559 0,-5.70309 0.96875,0 0,5.70309 -0.96875,0 z m 2.33621,0 0,-7.87497 0.96875,0 0,7.87497 -0.96875,0 z m 6.28937,-1.84372 1,0.125 q -0.23437,0.875 -0.875,1.35934 -0.64062,0.48438 -1.625,0.48438 -1.25,0 -1.98437,-0.76559 -0.73438,-0.76563 -0.73438,-2.15625 0,-1.45313 0.73438,-2.23438 0.75,-0.79687 1.92187,-0.79687 1.15625,0 1.875,0.78125 0.71875,0.76562 0.71875,2.1875 0,0.0781 0,0.25 l -4.25,0 q 0.0469,0.9375 0.51563,1.4375 0.48437,0.5 1.20312,0.5 0.53125,0 0.90625,-0.26563 0.375,-0.28125 0.59375,-0.90625 z m -3.17187,-1.5625 3.1875,0 q -0.0625,-0.71875 -0.35938,-1.07812 -0.46875,-0.54688 -1.20312,-0.54688 -0.67188,0 -1.125,0.45313 -0.45313,0.4375 -0.5,1.17187 z m 4.81711,1.70313 0.95312,-0.15625 q 0.0781,0.57812 0.4375,0.89062 0.375,0.29688 1.03125,0.29688 0.67188,0 0.98438,-0.26563 0.32812,-0.26562 0.32812,-0.64062 0,-0.32813 -0.28125,-0.51563 -0.20312,-0.125 -0.98437,-0.32812 -1.0625,-0.26563 -1.48438,-0.45313 -0.40625,-0.20312 -0.625,-0.54687 -0.20312,-0.34375 -0.20312,-0.76563 0,-0.39062 0.17187,-0.70312 0.17188,-0.32813 0.48438,-0.54688 0.21875,-0.17187 0.60937,-0.28125 0.39063,-0.10937 0.82813,-0.10937 0.67187,0 1.17187,0.1875 0.51563,0.1875 0.75,0.53125 0.25,0.32812 0.34375,0.875 l -0.9375,0.125 q -0.0781,-0.4375 -0.39062,-0.67188 -0.29688,-0.25 -0.85938,-0.25 -0.67187,0 -0.95312,0.21875 -0.28125,0.21875 -0.28125,0.51563 0,0.1875 0.10937,0.32812 0.125,0.15625 0.375,0.26563 0.14063,0.0469 0.85938,0.25 1.01562,0.26562 1.42187,0.4375 0.40625,0.17187 0.64063,0.51562 0.23437,0.32813 0.23437,0.82813 0,0.48437 -0.28125,0.90625 -0.28125,0.42184 -0.8125,0.65621 -0.53125,0.23438 -1.20312,0.23438 -1.10938,0 -1.70313,-0.45313 -0.57812,-0.46871 -0.73437,-1.37496 z m 5.67187,3.90621 -0.10937,-0.90625 q 0.3125,0.0781 0.54687,0.0781 0.32813,0 0.51563,-0.10938 0.20312,-0.10937 0.3125,-0.29687 0.0937,-0.14063 0.29687,-0.71875 0.0312,-0.0781 0.0937,-0.23438 l -2.17187,-5.71871 1.04687,0 1.1875,3.29687 q 0.23438,0.64063 0.40625,1.32813 0.17188,-0.67188 0.40625,-1.29688 l 1.21875,-3.32812 0.96875,0 -2.17187,5.79684 q -0.34375,0.9375 -0.54688,1.29687 -0.25,0.48438 -0.59375,0.70313 -0.32812,0.21875 -0.78125,0.21875 -0.28125,0 -0.625,-0.10938 z m 4.98438,-3.90621 0.95312,-0.15625 q 0.0781,0.57812 0.4375,0.89062 0.375,0.29688 1.03125,0.29688 0.67188,0 0.98438,-0.26563 0.32812,-0.26562 0.32812,-0.64062 0,-0.32813 -0.28125,-0.51563 -0.20312,-0.125 -0.98437,-0.32812 -1.0625,-0.26563 -1.48438,-0.45313 -0.40625,-0.20312 -0.625,-0.54687 -0.20312,-0.34375 -0.20312,-0.76563 0,-0.39062 0.17187,-0.70312 0.17188,-0.32813 0.48438,-0.54688 0.21875,-0.17187 0.60937,-0.28125 0.39063,-0.10937 0.82813,-0.10937 0.67187,0 1.17187,0.1875 0.51563,0.1875 0.75,0.53125 0.25,0.32812 0.34375,0.875 l -0.9375,0.125 q -0.0781,-0.4375 -0.39062,-0.67188 -0.29688,-0.25 -0.85938,-0.25 -0.67187,0 -0.95312,0.21875 -0.28125,0.21875 -0.28125,0.51563 0,0.1875 0.10937,0.32812 0.125,0.15625 0.375,0.26563 0.14063,0.0469 0.85938,0.25 1.01562,0.26562 1.42187,0.4375 0.40625,0.17187 0.64063,0.51562 0.23437,0.32813 0.23437,0.82813 0,0.48437 -0.28125,0.90625 -0.28125,0.42184 -0.8125,0.65621 -0.53125,0.23438 -1.20312,0.23438 -1.10938,0 -1.70313,-0.45313 -0.57812,-0.46871 -0.73437,-1.37496 z m 7.82812,0.84375 0.125,0.84371 q -0.40625,0.0937 -0.71875,0.0937 -0.53125,0 -0.82812,-0.17187 -0.28125,-0.17188 -0.40625,-0.43747 -0.10938,-0.26562 -0.10938,-1.14062 l 0,-3.28125 -0.71875,0 0,-0.75 0.71875,0 0,-1.40625 0.95313,-0.59375 0,2 0.98437,0 0,0.75 -0.98437,0 0,3.34375 q 0,0.40625 0.0469,0.53125 0.0625,0.10937 0.17188,0.1875 0.125,0.0625 0.32812,0.0625 0.17188,0 0.4375,-0.0312 z m 4.74191,-0.98438 1,0.125 q -0.23437,0.875 -0.875,1.35934 -0.64062,0.48438 -1.625,0.48438 -1.25,0 -1.98437,-0.76559 -0.73438,-0.76563 -0.73438,-2.15625 0,-1.45313 0.73438,-2.23438 0.75,-0.79687 1.92187,-0.79687 1.15625,0 1.875,0.78125 0.71875,0.76562 0.71875,2.1875 0,0.0781 0,0.25 l -4.25,0 q 0.0469,0.9375 0.51563,1.4375 0.48437,0.5 1.20312,0.5 0.53125,0 0.90625,-0.26563 0.375,-0.28125 0.59375,-0.90625 z m -3.17187,-1.5625 3.1875,0 q -0.0625,-0.71875 -0.35938,-1.07812 -0.46875,-0.54688 -1.20312,-0.54688 -0.67188,0 -1.125,0.45313 -0.45313,0.4375 -0.5,1.17187 z m 5.19214,3.40622 0,-5.70309 0.875,0 0,0.79687 q 0.26562,-0.42187 0.70312,-0.67187 0.45313,-0.25 1.01563,-0.25 0.64062,0 1.04687,0.26562 0.40625,0.25 0.57813,0.73438 0.67187,-1 1.75,-1 0.85937,0 1.3125,0.46875 0.45312,0.46875 0.45312,1.4375 l 0,3.92184 -0.95312,0 0,-3.59372 q 0,-0.57812 -0.0937,-0.82812 -0.0937,-0.26563 -0.34375,-0.42188 -0.25,-0.15625 -0.57813,-0.15625 -0.60937,0 -1.01562,0.40625 -0.39063,0.40625 -0.39063,1.28125 l 0,3.31247 -0.96875,0 0,-3.70309 q 0,-0.64063 -0.23437,-0.96875 -0.23438,-0.32813 -0.76563,-0.32813 -0.40625,0 -0.76562,0.21875 -0.34375,0.21875 -0.5,0.64063 -0.15625,0.40625 -0.15625,1.1875 l 0,2.95309 -0.96875,0 z" />
  <path
     style="fill:#000000;fill-opacity:0;fill-rule:nonzero"
     inkscape:connector-curvature="0"
     id="path113"
     d="m 371.9083,477.77675 0,-18.42517" />
  <path
     style="stroke:#000000;stroke-width:2;stroke-linecap:butt;stroke-linejoin:round"
     inkscape:connector-curvature="0"
     id="path115"
     d="m 371.9083,477.77675 0,-6.42517" />
  <path
     style="fill:#000000;fill-rule:evenodd;stroke:#000000;stroke-width:2;stroke-linecap:butt"
     inkscape:connector-curvature="0"
     id="path117"
     d="m 375.21176,471.35158 -3.30347,-9.07623 -3.30346,9.07623 z" />
  <path
     style="fill:#000000;fill-opacity:0;fill-rule:nonzero"
     inkscape:connector-curvature="0"
     id="path119"
     d="m 371.9083,428.80037 56,-21.5433" />
  <path
     style="stroke:#000000;stroke-width:2;stroke-linecap:butt;stroke-linejoin:round"
     inkscape:connector-curvature="0"
     id="path121"
     d="m 371.9083,428.80037 44.80017,-17.23471" />
  <path
     style="fill:#000000;fill-rule:evenodd;stroke:#000000;stroke-width:2;stroke-linecap:butt"
     inkscape:connector-curvature="0"
     id="path123"
     d="m 417.89456,414.64885 7.28491,-6.34201 -9.6571,0.17563 z" />
  <path
     style="fill:#000000;fill-opacity:0;fill-rule:nonzero"
     inkscape:connector-curvature="0"
     id="path125"
     d="m 463.9083,477.77675 -36,-70.51968" />
  <path
     style="stroke:#000000;stroke-width:2;stroke-linecap:butt;stroke-linejoin:round"
     inkscape:connector-curvature="0"
     id="path127"
     d="M 463.9083,477.77675 433.36442,417.94493" />
  <path
     style="fill:#000000;fill-rule:evenodd;stroke:#000000;stroke-width:2;stroke-linecap:butt"
     inkscape:connector-curvature="0"
     id="path129"
     d="m 436.30666,416.44295 -7.06897,-6.58179 1.18445,9.58579 z" />
  <path
     style="fill:#000000;fill-opacity:0;fill-rule:nonzero"
     inkscape:connector-curvature="0"
     id="path131"
     d="m 296.44898,391.9959 95.46457,0" />
  <path
     style="stroke:#000000;stroke-width:2;stroke-linecap:butt;stroke-linejoin:round"
     inkscape:connector-curvature="0"
     id="path133"
     d="m 296.44898,391.9959 83.46457,0" />
  <path
     style="fill:#000000;fill-rule:evenodd;stroke:#000000;stroke-width:2;stroke-linecap:butt"
     inkscape:connector-curvature="0"
     id="path135"
     d="m 379.91356,395.29937 9.07617,-3.30347 -9.07617,-3.30346 z" />
  <path
     style="fill:#ffff00;fill-rule:nonzero"
     inkscape:connector-curvature="0"
     id="path137"
     d="m 391.8978,317.69933 72,0 0,30.55118 -72,0 z" />
  <path
     style="stroke:#000000;stroke-width:2;stroke-linecap:butt;stroke-linejoin:round"
     inkscape:connector-curvature="0"
     id="path139"
     d="m 391.8978,317.69933 72,0 0,30.55118 -72,0 z" />
  <path
     style="fill:#000000;fill-rule:nonzero"
     inkscape:connector-curvature="0"
     id="path141"
     d="m 409.20076,336.71492 0,-7.875 1.0625,0 4.14062,6.1875 0,-6.1875 1,0 0,7.875 -1.07812,0 -4.125,-6.1875 0,6.1875 -1,0 z m 11.47681,-1.84375 1,0.125 q -0.23438,0.875 -0.875,1.35937 -0.64063,0.48438 -1.625,0.48438 -1.25,0 -1.98438,-0.76563 -0.73437,-0.76562 -0.73437,-2.15625 0,-1.45312 0.73437,-2.23437 0.75,-0.79688 1.92188,-0.79688 1.15625,0 1.875,0.78125 0.71875,0.76563 0.71875,2.1875 0,0.0781 0,0.25 l -4.25,0 q 0.0469,0.9375 0.51562,1.4375 0.48438,0.5 1.20313,0.5 0.53125,0 0.90625,-0.26562 0.375,-0.28125 0.59375,-0.90625 z m -3.17188,-1.5625 3.1875,0 q -0.0625,-0.71875 -0.35937,-1.07813 -0.46875,-0.54687 -1.20313,-0.54687 -0.67187,0 -1.125,0.45312 -0.45312,0.4375 -0.5,1.17188 z m 7.31714,2.54687 0.125,0.84375 q -0.40625,0.0937 -0.71875,0.0937 -0.53125,0 -0.82812,-0.17187 -0.28125,-0.17188 -0.40625,-0.4375 -0.10938,-0.26563 -0.10938,-1.14063 l 0,-3.28125 -0.71875,0 0,-0.75 0.71875,0 0,-1.40625 0.95313,-0.59375 0,2 0.98437,0 0,0.75 -0.98437,0 0,3.34375 q 0,0.40625 0.0469,0.53125 0.0625,0.10938 0.17188,0.1875 0.125,0.0625 0.32812,0.0625 0.17188,0 0.4375,-0.0312 z m 1.89813,0.85938 -1.75,-5.70313 1,0 0.90625,3.29688 0.34375,1.21875 q 0.0156,-0.0937 0.29688,-1.17188 l 0.90625,-3.34375 0.98437,0 0.85938,3.3125 0.28125,1.07813 0.32812,-1.09375 0.98438,-3.29688 0.9375,0 -1.78125,5.70313 -1,0 -0.92188,-3.42188 -0.21875,-0.96875 -1.15625,4.39063 -1,0 z m 6.27375,-2.85938 q 0,-1.57812 0.89062,-2.34375 0.73438,-0.625 1.79688,-0.625 1.17187,0 1.90625,0.76563 0.75,0.76562 0.75,2.125 0,1.10937 -0.32813,1.75 -0.32812,0.625 -0.96875,0.96875 -0.625,0.34375 -1.35937,0.34375 -1.20313,0 -1.95313,-0.76563 -0.73437,-0.76562 -0.73437,-2.21875 z m 1,0 q 0,1.10938 0.46875,1.65625 0.48437,0.53125 1.21875,0.53125 0.71875,0 1.1875,-0.54687 0.48437,-0.54688 0.48437,-1.67188 0,-1.04687 -0.48437,-1.59375 -0.48438,-0.54687 -1.1875,-0.54687 -0.73438,0 -1.21875,0.54687 -0.46875,0.53125 -0.46875,1.625 z m 5.28588,2.85938 0,-5.70313 0.85938,0 0,0.85938 q 0.34375,-0.60938 0.625,-0.79688 0.28125,-0.1875 0.60937,-0.1875 0.5,0 1,0.3125 l -0.32812,0.89063 q -0.35938,-0.20313 -0.71875,-0.20313 -0.3125,0 -0.5625,0.1875 -0.25,0.1875 -0.35938,0.53125 -0.15625,0.51563 -0.15625,1.125 l 0,2.98438 -0.96875,0 z m 3.56421,0 0,-7.875 0.96875,0 0,4.48437 2.28125,-2.3125 1.25,0 -2.17187,2.10938 2.39062,3.59375 -1.1875,0 -1.89062,-2.92188 -0.67188,0.65625 0,2.26563 -0.96875,0 z" />
  <path
     style="fill:#000000;fill-opacity:0;fill-rule:nonzero"
     inkscape:connector-curvature="0"
     id="path143"
     d="m 427.8978,376.71375 0,-28.47244" />
  <path
     style="stroke:#000000;stroke-width:2;stroke-linecap:butt;stroke-linejoin:round"
     inkscape:connector-curvature="0"
     id="path145"
     d="m 427.8978,376.71375 0,-16.47244" />
  <path
     style="fill:#000000;fill-rule:evenodd;stroke:#000000;stroke-width:2;stroke-linecap:butt"
     inkscape:connector-curvature="0"
     id="path147"
     d="m 431.20126,360.24132 -3.30347,-9.0762 -3.30346,9.0762 z" />
  <path
     style="fill:#999999;fill-rule:nonzero"
     inkscape:connector-curvature="0"
     id="path149"
     d="m 47.063145,0.99066384 72.000005,0 0,30.55117816 -72.000005,0 z" />
  <path
     style="stroke:#000000;stroke-width:2;stroke-linecap:butt;stroke-linejoin:round"
     inkscape:connector-curvature="0"
     id="path151"
     d="m 47.063145,0.99066384 72.000005,0 0,30.55117816 -72.000005,0 z" />
  <path
     style="fill:#000000;fill-rule:nonzero"
     inkscape:connector-curvature="0"
     id="path153"
     d="m 72.673095,20.006249 0,-7.875 3.5,0 q 1.04687,0 1.59375,0.21875 0.54687,0.203125 0.875,0.75 0.32812,0.53125 0.32812,1.1875 0,0.828125 -0.54687,1.40625 -0.53125,0.578125 -1.67188,0.734375 0.42188,0.1875 0.625,0.390625 0.46875,0.421875 0.875,1.046875 l 1.35938,2.140625 -1.29688,0 -1.04687,-1.640625 q -0.45313,-0.703125 -0.75,-1.078125 -0.29688,-0.375 -0.53125,-0.53125 -0.23438,-0.15625 -0.46875,-0.203125 -0.1875,-0.04687 -0.59375,-0.04687 l -1.20313,0 0,3.5 -1.04687,0 z m 1.04687,-4.40625 2.23438,0 q 0.71875,0 1.125,-0.140625 0.40625,-0.140625 0.60937,-0.46875 0.20313,-0.328125 0.20313,-0.703125 0,-0.5625 -0.40625,-0.921875 -0.39063,-0.359375 -1.26563,-0.359375 l -2.5,0 0,2.59375 z m 6.60186,4.40625 0,-7.875 2.95312,0 q 0.89063,0 1.4375,0.25 0.54688,0.234375 0.85938,0.734375 0.3125,0.484375 0.3125,1.03125 0,0.5 -0.28125,0.953125 -0.26563,0.4375 -0.82813,0.71875 0.71875,0.203125 1.09375,0.71875 0.39063,0.5 0.39063,1.1875 0,0.546875 -0.23438,1.03125 -0.23437,0.46875 -0.57812,0.734375 -0.34375,0.25 -0.85938,0.390625 -0.51562,0.125 -1.26562,0.125 l -3,0 z m 1.03125,-4.5625 1.70312,0 q 0.70313,0 1,-0.09375 0.39063,-0.125 0.59375,-0.390625 0.20313,-0.28125 0.20313,-0.6875 0,-0.390625 -0.1875,-0.6875 -0.1875,-0.296875 -0.54688,-0.40625 -0.34375,-0.109375 -1.1875,-0.109375 l -1.57812,0 0,2.375 z m 0,3.640625 1.96875,0 q 0.5,0 0.70312,-0.04687 0.35938,-0.0625 0.59375,-0.203125 0.25,-0.15625 0.40625,-0.4375 0.15625,-0.296875 0.15625,-0.671875 0,-0.4375 -0.23437,-0.765625 -0.21875,-0.328125 -0.625,-0.453125 -0.39063,-0.140625 -1.14063,-0.140625 l -1.82812,0 0,2.71875 z m 6.10763,0.921875 0,-7.875 2.71875,0 q 0.92188,0 1.40625,0.109375 0.67188,0.15625 1.15625,0.5625 0.60938,0.53125 0.92188,1.359375 0.3125,0.8125 0.3125,1.859375 0,0.90625 -0.21875,1.59375 -0.20313,0.6875 -0.53125,1.140625 -0.32813,0.453125 -0.71875,0.71875 -0.39063,0.265625 -0.9375,0.40625 -0.54688,0.125 -1.26563,0.125 l -2.84375,0 z m 1.04688,-0.921875 1.6875,0 q 0.76562,0 1.20312,-0.140625 0.45313,-0.15625 0.71875,-0.421875 0.375,-0.375 0.57813,-1 0.20312,-0.625 0.20312,-1.515625 0,-1.234375 -0.40625,-1.890625 -0.40625,-0.671875 -0.98437,-0.890625 -0.42188,-0.15625 -1.34375,-0.15625 l -1.65625,0 0,6.015625 z" />
  <path
     style="fill:#6d9eeb;fill-rule:nonzero"
     inkscape:connector-curvature="0"
     id="path155"
     d="m 128.98441,0.99066384 72,0 0,30.55117816 -72,0 z" />
  <path
     style="stroke:#000000;stroke-width:2;stroke-linecap:butt;stroke-linejoin:round"
     inkscape:connector-curvature="0"
     id="path157"
     d="m 128.98441,0.99066384 72,0 0,30.55117816 -72,0 z" />
  <path
     style="fill:#000000;fill-rule:nonzero"
     inkscape:connector-curvature="0"
     id="path159"
     d="m 151.90716,17.240629 1.04687,0.265625 q -0.32812,1.28125 -1.1875,1.96875 -0.84375,0.671875 -2.07812,0.671875 -1.28125,0 -2.07813,-0.515625 -0.79687,-0.53125 -1.21875,-1.515625 -0.40625,-0.984375 -0.40625,-2.109375 0,-1.21875 0.46875,-2.140625 0.46875,-0.921875 1.32813,-1.390625 0.875,-0.484375 1.92187,-0.484375 1.1875,0 1.98438,0.609375 0.8125,0.59375 1.125,1.6875 l -1.03125,0.25 q -0.26563,-0.859375 -0.79688,-1.25 -0.51562,-0.390625 -1.29687,-0.390625 -0.92188,0 -1.53125,0.4375 -0.60938,0.421875 -0.85938,1.15625 -0.23437,0.734375 -0.23437,1.515625 0,1 0.28125,1.75 0.29687,0.75 0.90625,1.125 0.625,0.375 1.34375,0.375 0.875,0 1.48437,-0.5 0.60938,-0.515625 0.82813,-1.515625 z m 5.85184,0.921875 1,0.125 q -0.23438,0.875 -0.875,1.359375 -0.64063,0.484375 -1.625,0.484375 -1.25,0 -1.98438,-0.765625 -0.73437,-0.765625 -0.73437,-2.15625 0,-1.453125 0.73437,-2.234375 0.75,-0.796875 1.92188,-0.796875 1.15625,0 1.875,0.78125 0.71875,0.765625 0.71875,2.1875 0,0.07813 0,0.25 l -4.25,0 q 0.0469,0.9375 0.51562,1.4375 0.48438,0.5 1.20313,0.5 0.53125,0 0.90625,-0.265625 0.375,-0.28125 0.59375,-0.90625 z m -3.17188,-1.5625 3.1875,0 q -0.0625,-0.71875 -0.35937,-1.078125 -0.46875,-0.546875 -1.20313,-0.546875 -0.67187,0 -1.125,0.453125 -0.45312,0.4375 -0.5,1.171875 z m 5.19214,5.59375 0,-7.890625 0.89063,0 0,0.734375 q 0.3125,-0.421875 0.70312,-0.640625 0.39063,-0.21875 0.95313,-0.21875 0.71875,0 1.28125,0.375 0.5625,0.375 0.84375,1.0625 0.28125,0.671875 0.28125,1.5 0,0.875 -0.3125,1.578125 -0.3125,0.6875 -0.92188,1.0625 -0.59375,0.375 -1.25,0.375 -0.48437,0 -0.875,-0.203125 -0.375,-0.203125 -0.625,-0.515625 l 0,2.78125 -0.96875,0 z m 0.875,-5 q 0,1.09375 0.45313,1.625 0.45312,0.515625 1.07812,0.515625 0.64063,0 1.09375,-0.53125 0.46875,-0.546875 0.46875,-1.703125 0,-1.078125 -0.45312,-1.625 -0.4375,-0.546875 -1.0625,-0.546875 -0.625,0 -1.10938,0.578125 -0.46875,0.578125 -0.46875,1.6875 z m 5.05148,2.8125 0,-7.875 0.96875,0 0,2.828125 q 0.6875,-0.78125 1.71875,-0.78125 0.625,0 1.09375,0.25 0.46875,0.25 0.67188,0.6875 0.20312,0.4375 0.20312,1.28125 l 0,3.609375 -0.96875,0 0,-3.609375 q 0,-0.734375 -0.3125,-1.0625 -0.3125,-0.328125 -0.89062,-0.328125 -0.4375,0 -0.8125,0.21875 -0.375,0.21875 -0.54688,0.609375 -0.15625,0.375 -0.15625,1.046875 l 0,3.125 -0.96875,0 z m 6.11402,0 0,-7.875 5.3125,0 0,0.9375 -4.28125,0 0,2.4375 3.70312,0 0,0.921875 -3.70312,0 0,3.578125 -1.03125,0 z m 6.10299,-2.53125 0.98438,-0.07813 q 0.0625,0.578125 0.3125,0.96875 0.26562,0.375 0.79687,0.609375 0.53125,0.234375 1.20313,0.234375 0.60937,0 1.0625,-0.171875 0.45312,-0.1875 0.67187,-0.484375 0.23438,-0.3125 0.23438,-0.6875 0,-0.375 -0.21875,-0.640625 -0.21875,-0.28125 -0.71875,-0.46875 -0.3125,-0.125 -1.40625,-0.375 -1.07813,-0.265625 -1.51563,-0.5 -0.5625,-0.296875 -0.84375,-0.734375 -0.26562,-0.4375 -0.26562,-0.984375 0,-0.59375 0.32812,-1.109375 0.34375,-0.515625 0.98438,-0.78125 0.65625,-0.28125 1.45312,-0.28125 0.875,0 1.54688,0.296875 0.67187,0.28125 1.03125,0.828125 0.35937,0.546875 0.39062,1.234375 l -1,0.07813 q -0.0781,-0.75 -0.54687,-1.125 -0.46875,-0.390625 -1.375,-0.390625 -0.9375,0 -1.375,0.359375 -0.4375,0.34375 -0.4375,0.828125 0,0.421875 0.3125,0.703125 0.29687,0.265625 1.5625,0.5625 1.28125,0.28125 1.75,0.5 0.6875,0.3125 1.01562,0.796875 0.32813,0.484375 0.32813,1.125 0,0.625 -0.35938,1.1875 -0.35937,0.546875 -1.04687,0.859375 -0.67188,0.3125 -1.51563,0.3125 -1.0625,0 -1.78125,-0.3125 -0.71875,-0.3125 -1.14062,-0.9375 -0.40625,-0.625 -0.42188,-1.421875 z" />
  <path
     style="fill:#000000;fill-opacity:0;fill-rule:nonzero"
     inkscape:connector-curvature="0"
     id="path161"
     d="M 93.000155,317.69933 399.8978,121.1009" />
  <path
     style="stroke:#000000;stroke-width:2;stroke-linecap:butt;stroke-linejoin:round"
     inkscape:connector-curvature="0"
     id="path163"
     d="M 93.000155,317.69933 389.79331,127.57383" />
  <path
     style="fill:#000000;fill-rule:evenodd;stroke:#000000;stroke-width:2;stroke-linecap:butt"
     inkscape:connector-curvature="0"
     id="path165"
     d="m 391.57526,130.35549 5.8606,-7.67746 -9.42444,2.11415 z" />
  <path
     style="fill:#000000;fill-opacity:0;fill-rule:nonzero"
     inkscape:connector-curvature="0"
     id="path167"
     d="m 427.8978,317.69933 -28,-196.59843" />
  <path
     style="stroke:#000000;stroke-width:2;stroke-linecap:butt;stroke-linejoin:round"
     inkscape:connector-curvature="0"
     id="path169"
     d="M 427.8978,317.69933 401.58982,132.98101" />
  <path
     style="fill:#000000;fill-rule:evenodd;stroke:#000000;stroke-width:2;stroke-linecap:butt"
     inkscape:connector-curvature="0"
     id="path171"
     d="m 404.86026,132.51523 -4.55023,-8.51975 -1.99072,9.45131 z" />
  <path
     style="fill:#000000;fill-opacity:0;fill-rule:nonzero"
     inkscape:connector-curvature="0"
     id="path173"
     d="m 125.00016,90.557589 40,-59.02362" />
  <path
     style="stroke:#000000;stroke-width:2;stroke-linecap:butt;stroke-linejoin:round"
     inkscape:connector-curvature="0"
     id="path175"
     d="M 125.00016,90.557589 158.2681,41.467719" />
  <path
     style="fill:#000000;fill-rule:evenodd;stroke:#000000;stroke-width:2;stroke-linecap:butt"
     inkscape:connector-curvature="0"
     id="path177"
     d="m 161.00276,43.320979 2.35715,-9.366646 -7.82645,5.660136 z" />
  <path
     style="fill:#000000;fill-opacity:0;fill-rule:nonzero"
     inkscape:connector-curvature="0"
     id="path179"
     d="M 125.00016,90.557589 83.047395,31.533969" />
  <path
     style="stroke:#000000;stroke-width:2;stroke-linecap:butt;stroke-linejoin:round"
     inkscape:connector-curvature="0"
     id="path181"
     d="M 125.00016,90.557589 89.999515,41.314959" />
  <path
     style="fill:#000000;fill-rule:evenodd;stroke:#000000;stroke-width:2;stroke-linecap:butt"
     inkscape:connector-curvature="0"
     id="path183"
     d="m 92.692125,39.401129 -7.95084,-5.484016 2.56565,9.311696 z" />
  <path
     style="fill:#000000;fill-opacity:0;fill-rule:nonzero"
     inkscape:connector-curvature="0"
     id="path185"
     d="M 93.000155,317.69933 125.00016,121.1009" />
  <path
     style="stroke:#000000;stroke-width:2;stroke-linecap:butt;stroke-linejoin:round"
     inkscape:connector-curvature="0"
     id="path187"
     d="M 93.000155,317.69933 123.07232,132.94501" />
  <path
     style="fill:#000000;fill-rule:evenodd;stroke:#000000;stroke-width:2;stroke-linecap:butt"
     inkscape:connector-curvature="0"
     id="path189"
     d="m 126.33286,133.47574 -1.80243,-9.48901 -4.71867,8.42758 z" />
  <path
     style="fill:#000000;fill-opacity:0;fill-rule:nonzero"
     inkscape:connector-curvature="0"
     id="path191"
     d="M 427.8978,317.69933 125.00016,121.1009" />
  <path
     style="stroke:#000000;stroke-width:2;stroke-linecap:butt;stroke-linejoin:round"
     inkscape:connector-curvature="0"
     id="path193"
     d="M 427.8978,317.69933 135.0658,127.6341" />
  <path
     style="fill:#000000;fill-rule:evenodd;stroke:#000000;stroke-width:2;stroke-linecap:butt"
     inkscape:connector-curvature="0"
     id="path195"
     d="m 136.86433,124.86313 -9.41167,-2.17041 5.81462,7.71234 z" />
  <path
     style="fill:#00ffff;fill-rule:nonzero"
     inkscape:connector-curvature="0"
     id="path197"
     d="m 319.89649,0.99066384 71.99997,0 0,30.55117816 -71.99997,0 z" />
  <path
     style="stroke:#000000;stroke-width:2;stroke-linecap:butt;stroke-linejoin:round"
     inkscape:connector-curvature="0"
     id="path199"
     d="m 319.89649,0.99066384 71.99997,0 0,30.55117816 -71.99997,0 z" />
  <path
     style="fill:#000000;fill-rule:nonzero"
     inkscape:connector-curvature="0"
     id="path201"
     d="m 349.87943,17.474999 0.98438,-0.07813 q 0.0625,0.578125 0.3125,0.96875 0.26562,0.375 0.79687,0.609375 0.53125,0.234375 1.20313,0.234375 0.60937,0 1.0625,-0.171875 0.45312,-0.1875 0.67187,-0.484375 0.23438,-0.3125 0.23438,-0.6875 0,-0.375 -0.21875,-0.640625 -0.21875,-0.28125 -0.71875,-0.46875 -0.3125,-0.125 -1.40625,-0.375 -1.07813,-0.265625 -1.51563,-0.5 -0.5625,-0.296875 -0.84375,-0.734375 -0.26562,-0.4375 -0.26562,-0.984375 0,-0.59375 0.32812,-1.109375 0.34375,-0.515625 0.98438,-0.78125 0.65625,-0.28125 1.45312,-0.28125 0.875,0 1.54688,0.296875 0.67187,0.28125 1.03125,0.828125 0.35937,0.546875 0.39062,1.234375 l -1,0.07813 q -0.0781,-0.75 -0.54687,-1.125 -0.46875,-0.390625 -1.375,-0.390625 -0.9375,0 -1.375,0.359375 -0.4375,0.34375 -0.4375,0.828125 0,0.421875 0.3125,0.703125 0.29687,0.265625 1.5625,0.5625 1.28125,0.28125 1.75,0.5 0.6875,0.3125 1.01562,0.796875 0.32813,0.484375 0.32813,1.125 0,0.625 -0.35938,1.1875 -0.35937,0.546875 -1.04687,0.859375 -0.67188,0.3125 -1.51563,0.3125 -1.0625,0 -1.78125,-0.3125 -0.71875,-0.3125 -1.14062,-0.9375 -0.40625,-0.625 -0.42188,-1.421875 z m 7.07639,0.453125 0.95312,-0.125 q 0.17188,0.8125 0.5625,1.1875 0.40625,0.359375 0.98438,0.359375 0.6875,0 1.15625,-0.46875 0.46875,-0.484375 0.46875,-1.171875 0,-0.671875 -0.4375,-1.09375 -0.4375,-0.4375 -1.10938,-0.4375 -0.26562,0 -0.67187,0.09375 l 0.0937,-0.84375 q 0.10937,0.01563 0.15625,0.01563 0.625,0 1.10937,-0.3125 0.5,-0.328125 0.5,-1 0,-0.53125 -0.35937,-0.875 -0.35938,-0.359375 -0.92188,-0.359375 -0.5625,0 -0.9375,0.359375 -0.375,0.34375 -0.48437,1.0625 l -0.96875,-0.171875 q 0.17187,-0.984375 0.79687,-1.515625 0.64063,-0.53125 1.5625,-0.53125 0.65625,0 1.1875,0.28125 0.54688,0.265625 0.82813,0.75 0.29687,0.484375 0.29687,1.015625 0,0.515625 -0.28125,0.9375 -0.26562,0.40625 -0.8125,0.65625 0.70313,0.15625 1.09375,0.671875 0.39063,0.5 0.39063,1.265625 0,1.03125 -0.76563,1.75 -0.75,0.71875 -1.89062,0.71875 -1.04688,0 -1.73438,-0.609375 -0.67187,-0.625 -0.76562,-1.609375 z" />
  <path
     style="fill:#00ffff;fill-rule:nonzero"
     inkscape:connector-curvature="0"
     id="path203"
     d="m 399.8978,0.99066384 72,0 0,30.55117816 -72,0 z" />
  <path
     style="stroke:#000000;stroke-width:2;stroke-linecap:butt;stroke-linejoin:round"
     inkscape:connector-curvature="0"
     id="path205"
     d="m 399.8978,0.99066384 72,0 0,30.55117816 -72,0 z" />
  <path
     style="fill:#000000;fill-rule:nonzero"
     inkscape:connector-curvature="0"
     id="path207"
     d="m 424.85176,17.474999 0.98437,-0.07813 q 0.0625,0.578125 0.3125,0.96875 0.26563,0.375 0.79688,0.609375 0.53125,0.234375 1.20312,0.234375 0.60938,0 1.0625,-0.171875 0.45313,-0.1875 0.67188,-0.484375 0.23437,-0.3125 0.23437,-0.6875 0,-0.375 -0.21875,-0.640625 -0.21875,-0.28125 -0.71875,-0.46875 -0.3125,-0.125 -1.40625,-0.375 -1.07812,-0.265625 -1.51562,-0.5 -0.5625,-0.296875 -0.84375,-0.734375 -0.26563,-0.4375 -0.26563,-0.984375 0,-0.59375 0.32813,-1.109375 0.34375,-0.515625 0.98437,-0.78125 0.65625,-0.28125 1.45313,-0.28125 0.875,0 1.54687,0.296875 0.67188,0.28125 1.03125,0.828125 0.35938,0.546875 0.39063,1.234375 l -1,0.07813 q -0.0781,-0.75 -0.54688,-1.125 -0.46875,-0.390625 -1.375,-0.390625 -0.9375,0 -1.375,0.359375 -0.4375,0.34375 -0.4375,0.828125 0,0.421875 0.3125,0.703125 0.29688,0.265625 1.5625,0.5625 1.28125,0.28125 1.75,0.5 0.6875,0.3125 1.01563,0.796875 0.32812,0.484375 0.32812,1.125 0,0.625 -0.35937,1.1875 -0.35938,0.546875 -1.04688,0.859375 -0.67187,0.3125 -1.51562,0.3125 -1.0625,0 -1.78125,-0.3125 -0.71875,-0.3125 -1.14063,-0.9375 -0.40625,-0.625 -0.42187,-1.421875 z m 8.38892,2.53125 -1.75,-5.703125 1,0 0.90625,3.296875 0.34375,1.21875 q 0.0156,-0.09375 0.29687,-1.171875 l 0.90625,-3.34375 0.98438,0 0.85937,3.3125 0.28125,1.078125 0.32813,-1.09375 0.98437,-3.296875 0.9375,0 -1.78125,5.703125 -1,0 -0.92187,-3.421875 -0.21875,-0.96875 -1.15625,4.390625 -1,0 z m 6.64868,-6.765625 0,-1.109375 0.96875,0 0,1.109375 -0.96875,0 z m 0,6.765625 0,-5.703125 0.96875,0 0,5.703125 -0.96875,0 z m 2.58624,0 0,-4.953125 -0.84375,0 0,-0.75 0.84375,0 0,-0.609375 q 0,-0.578125 0.10938,-0.859375 0.14062,-0.375 0.48437,-0.609375 0.35938,-0.234375 0.98438,-0.234375 0.40625,0 0.90625,0.109375 l -0.14063,0.84375 q -0.3125,-0.0625 -0.57812,-0.0625 -0.4375,0 -0.625,0.1875 -0.17188,0.1875 -0.17188,0.703125 l 0,0.53125 1.10938,0 0,0.75 -1.10938,0 0,4.953125 -0.96875,0 z m 4.85126,-0.859375 0.125,0.84375 q -0.40625,0.09375 -0.71875,0.09375 -0.53125,0 -0.82813,-0.171875 -0.28125,-0.171875 -0.40625,-0.4375 -0.10937,-0.265625 -0.10937,-1.140625 l 0,-3.28125 -0.71875,0 0,-0.75 0.71875,0 0,-1.40625 0.95312,-0.59375 0,2 0.98438,0 0,0.75 -0.98438,0 0,3.34375 q 0,0.40625 0.0469,0.53125 0.0625,0.109375 0.17187,0.1875 0.125,0.0625 0.32813,0.0625 0.17187,0 0.4375,-0.03125 z" />
  <path
     style="fill:#000000;fill-opacity:0;fill-rule:nonzero"
     inkscape:connector-curvature="0"
     id="path209"
     d="m 399.9083,90.557589 -44,-59.02362" />
  <path
     style="stroke:#000000;stroke-width:2;stroke-linecap:butt;stroke-linejoin:round"
     inkscape:connector-curvature="0"
     id="path211"
     d="M 399.9083,90.557589 363.08033,41.154879" />
  <path
     style="fill:#000000;fill-rule:evenodd;stroke:#000000;stroke-width:2;stroke-linecap:butt"
     inkscape:connector-curvature="0"
     id="path213"
     d="m 365.72886,39.180489 -8.07309,-5.302383 2.77603,9.251143 z" />
  <path
     style="fill:#000000;fill-opacity:0;fill-rule:nonzero"
     inkscape:connector-curvature="0"
     id="path215"
     d="m 399.9083,90.557589 36,-59.02362" />
  <path
     style="stroke:#000000;stroke-width:2;stroke-linecap:butt;stroke-linejoin:round"
     inkscape:connector-curvature="0"
     id="path217"
     d="m 399.9083,90.557589 29.7514,-48.77884" />
  <path
     style="fill:#000000;fill-rule:evenodd;stroke:#000000;stroke-width:2;stroke-linecap:butt"
     inkscape:connector-curvature="0"
     id="path219"
     d="m 432.48002,43.498909 1.90582,-9.468796 -7.54638,6.028476 z" />
</svg>
